<svg id="svg" version="1.1" xmlns="http://www.w3.org/2000/svg" xmlns:xlink="http://www.w3.org/1999/xlink" width="400" height="400" viewBox="0, 0, 400,400"><g id="svgg"><path id="path0" d="M162.416 116.468 C 153.814 117.696,147.463 122.036,145.703 127.889 C 144.148 133.060,143.129 163.111,144.283 169.800 C 144.746 172.483,145.049 174.833,146.015 183.200 C 146.256 185.290,146.611 188.170,146.804 189.600 C 146.997 191.030,147.353 193.910,147.596 196.000 C 147.838 198.090,148.485 203.468,149.033 207.952 C 150.256 217.959,150.107 218.307,147.128 212.400 C 146.406 210.970,145.721 209.710,145.606 209.600 C 145.490 209.490,144.836 208.320,144.154 207.000 C 143.471 205.680,142.321 203.520,141.599 202.200 C 140.072 199.410,138.000 195.269,138.000 195.007 C 138.000 194.845,132.574 181.541,131.594 179.300 C 131.230 178.468,131.043 178.010,130.041 175.500 C 129.652 174.527,128.895 172.730,127.807 170.200 C 127.428 169.320,126.981 168.240,126.813 167.800 C 126.401 166.723,125.807 165.289,125.073 163.600 C 124.738 162.830,123.894 160.760,123.197 159.000 C 122.499 157.240,121.608 155.080,121.216 154.200 C 120.824 153.320,120.011 151.340,119.408 149.800 C 118.806 148.260,117.882 146.050,117.356 144.888 C 116.830 143.727,116.400 142.548,116.400 142.268 C 116.400 141.989,116.248 141.589,116.062 141.380 C 115.877 141.171,115.309 139.920,114.800 138.600 C 114.291 137.280,113.723 136.029,113.538 135.820 C 113.352 135.611,113.200 135.196,113.200 134.898 C 113.200 134.057,110.247 129.910,108.168 127.832 C 101.896 121.560,93.191 119.152,82.846 120.829 C 68.705 123.121,66.022 128.245,67.988 149.200 C 68.225 151.730,68.596 155.780,68.813 158.200 C 69.228 162.855,69.672 167.242,70.388 173.800 C 70.629 176.000,71.004 179.510,71.222 181.600 C 71.440 183.690,71.786 186.930,71.991 188.800 C 72.196 190.670,72.560 194.180,72.800 196.600 C 73.040 199.020,73.399 202.530,73.597 204.400 C 73.795 206.270,74.147 209.645,74.379 211.900 C 74.610 214.155,74.990 217.845,75.221 220.100 C 75.453 222.355,75.803 225.730,76.000 227.600 C 76.197 229.470,76.542 232.800,76.768 235.000 C 76.993 237.200,77.363 240.755,77.589 242.900 C 77.815 245.045,78.185 248.555,78.411 250.700 C 78.867 255.023,79.419 260.627,79.841 265.200 C 80.614 273.591,86.060 278.143,97.400 279.875 C 101.855 280.556,111.392 280.174,113.800 279.219 C 123.574 275.341,126.106 268.913,124.209 252.800 C 123.593 247.574,122.434 239.059,121.595 233.600 C 121.409 232.390,121.061 230.050,120.822 228.400 C 120.217 224.228,118.924 216.559,118.024 211.800 C 117.608 209.600,117.051 206.540,116.787 205.000 C 116.523 203.460,116.146 201.671,115.948 201.025 C 114.791 197.237,117.202 200.389,121.283 208.000 C 122.049 209.430,123.064 211.275,123.538 212.100 C 125.967 216.328,126.737 217.700,129.206 222.200 C 129.930 223.520,131.644 226.580,133.013 229.000 C 134.383 231.420,136.128 234.570,136.892 236.000 C 137.655 237.430,138.804 239.500,139.444 240.600 C 140.085 241.700,140.870 243.140,141.190 243.800 C 141.510 244.460,142.065 245.450,142.424 246.000 C 142.783 246.550,143.761 248.260,144.597 249.800 C 145.433 251.340,147.235 254.580,148.601 257.000 C 149.968 259.420,151.676 262.480,152.398 263.800 C 154.232 267.153,155.338 269.140,156.405 271.000 C 156.910 271.880,157.700 273.310,158.162 274.178 C 162.812 282.931,179.256 287.007,193.485 282.932 C 202.183 280.441,203.931 273.955,200.796 255.800 C 200.568 254.480,200.189 252.140,199.955 250.600 C 199.721 249.060,199.379 246.810,199.195 245.600 C 198.509 241.099,197.961 237.318,197.586 234.500 C 197.374 232.905,197.014 230.205,196.788 228.500 C 196.561 226.795,196.201 224.005,195.988 222.300 C 195.774 220.595,195.420 217.760,195.200 216.000 C 194.241 208.330,193.465 201.612,192.797 195.200 C 191.774 185.387,191.540 183.003,191.169 178.600 C 190.947 175.960,190.587 171.820,190.369 169.400 C 190.151 166.980,189.814 157.980,189.620 149.400 C 189.288 134.747,189.130 132.739,188.036 129.200 C 185.111 119.743,174.926 114.681,162.416 116.468 M252.400 117.439 C 252.070 117.520,249.820 117.772,247.400 117.999 C 241.004 118.600,236.667 119.493,231.000 121.376 C 227.571 122.515,222.847 124.735,222.000 125.605 C 221.890 125.719,220.864 126.583,219.720 127.526 C 214.931 131.475,214.938 134.158,219.753 139.331 L 221.901 141.639 222.161 154.920 C 222.304 162.224,222.590 179.360,222.795 193.000 C 223.991 272.358,223.849 268.075,225.387 271.317 C 226.518 273.700,231.347 278.000,232.892 278.000 C 233.193 278.000,233.611 278.153,233.820 278.341 C 235.800 280.118,248.591 280.866,255.600 279.614 C 256.810 279.398,258.477 279.107,259.304 278.967 C 260.131 278.826,260.906 278.551,261.027 278.356 C 261.148 278.160,261.516 278.000,261.846 278.000 C 262.738 278.000,266.840 275.097,268.100 273.575 C 270.725 270.403,270.880 269.315,271.027 253.053 C 271.100 244.943,271.234 238.233,271.324 238.143 C 271.414 238.053,274.798 237.911,278.844 237.827 C 301.067 237.368,316.404 231.496,326.000 219.775 C 328.163 217.132,330.535 212.346,331.537 208.600 C 332.980 203.205,333.000 202.808,332.989 179.800 C 332.978 154.908,332.814 152.481,330.803 147.400 C 330.628 146.960,330.119 145.660,329.670 144.511 C 326.810 137.193,316.537 128.564,306.200 124.798 C 305.760 124.638,304.950 124.312,304.400 124.074 C 302.949 123.445,299.621 122.349,298.000 121.967 C 297.230 121.785,295.790 121.445,294.800 121.212 C 292.882 120.759,290.209 120.263,286.000 119.580 C 277.352 118.176,255.170 116.763,252.400 117.439 M284.620 144.780 C 290.188 147.305,291.973 150.203,292.763 158.000 C 293.509 165.366,294.812 185.922,294.804 190.200 C 294.783 201.616,289.291 209.324,278.758 212.721 C 275.512 213.768,271.396 214.241,271.007 213.612 C 270.666 213.060,268.923 166.874,268.734 153.400 L 268.600 143.800 270.800 143.538 C 275.966 142.923,281.651 143.434,284.620 144.780 " stroke="none" fill="#fafafa" fill-rule="evenodd"></path><path id="path1" d="M179.100 0.274 C 177.175 0.361,175.600 0.604,175.600 0.816 C 175.600 1.029,174.180 1.200,172.400 1.200 C 170.533 1.200,169.200 1.367,169.200 1.600 C 169.200 1.822,168.133 2.000,166.800 2.000 C 165.467 2.000,164.400 2.178,164.400 2.400 C 164.400 2.620,163.410 2.800,162.200 2.800 C 160.990 2.800,160.000 2.980,160.000 3.200 C 160.000 3.420,159.280 3.600,158.400 3.600 C 157.520 3.600,156.800 3.780,156.800 4.000 C 156.800 4.220,156.001 4.400,155.024 4.400 C 154.047 4.400,153.136 4.580,153.000 4.800 C 152.864 5.020,152.133 5.200,151.376 5.200 C 150.619 5.200,150.000 5.380,150.000 5.600 C 150.000 5.820,149.370 6.000,148.600 6.000 C 147.830 6.000,147.200 6.180,147.200 6.400 C 147.200 6.620,146.570 6.800,145.800 6.800 C 145.030 6.800,144.400 6.980,144.400 7.200 C 144.400 7.420,143.781 7.600,143.024 7.600 C 142.267 7.600,141.536 7.780,141.400 8.000 C 141.264 8.220,140.724 8.400,140.200 8.400 C 139.676 8.400,139.136 8.580,139.000 8.800 C 138.864 9.020,138.324 9.200,137.800 9.200 C 137.276 9.200,136.749 9.359,136.629 9.554 C 136.508 9.748,135.571 10.033,134.546 10.187 C 133.521 10.341,132.394 10.611,132.041 10.787 C 131.689 10.963,130.860 11.329,130.200 11.600 C 129.540 11.871,128.687 12.252,128.305 12.447 C 127.923 12.641,127.338 12.800,127.005 12.800 C 126.672 12.800,126.400 12.980,126.400 13.200 C 126.400 13.420,125.860 13.600,125.200 13.600 C 124.540 13.600,124.000 13.780,124.000 14.000 C 124.000 14.220,123.640 14.400,123.200 14.400 C 122.760 14.400,122.400 14.547,122.400 14.728 C 122.400 14.908,121.500 15.300,120.400 15.600 C 119.300 15.900,118.400 16.292,118.400 16.472 C 118.400 16.653,118.040 16.800,117.600 16.800 C 117.160 16.800,116.800 16.980,116.800 17.200 C 116.800 17.420,116.440 17.600,116.000 17.600 C 115.560 17.600,115.200 17.780,115.200 18.000 C 115.200 18.220,114.955 18.400,114.655 18.400 C 114.169 18.400,112.112 19.407,106.400 22.443 C 105.410 22.969,104.540 23.535,104.467 23.700 C 104.393 23.865,103.988 24.000,103.567 24.000 C 103.145 24.000,102.800 24.180,102.800 24.400 C 102.800 24.620,102.440 24.800,102.000 24.800 C 101.560 24.800,101.200 24.980,101.200 25.200 C 101.200 25.420,100.964 25.600,100.675 25.600 C 100.387 25.600,99.764 25.960,99.292 26.400 C 98.820 26.840,98.198 27.200,97.910 27.200 C 97.621 27.200,96.723 27.650,95.914 28.200 C 95.105 28.750,94.253 29.200,94.021 29.200 C 93.790 29.200,93.600 29.358,93.600 29.551 C 93.600 29.745,93.060 30.127,92.400 30.400 C 91.740 30.673,91.200 31.055,91.200 31.249 C 91.200 31.442,90.880 31.600,90.488 31.600 C 90.097 31.600,89.517 31.960,89.200 32.400 C 88.883 32.840,88.343 33.200,88.000 33.200 C 87.657 33.200,87.117 33.560,86.800 34.000 C 86.483 34.440,86.038 34.800,85.812 34.801 C 85.585 34.801,84.770 35.341,84.000 36.000 C 83.230 36.659,82.415 37.199,82.188 37.199 C 81.962 37.200,81.517 37.560,81.200 38.000 C 80.883 38.440,80.438 38.802,80.212 38.805 C 79.851 38.809,78.997 39.505,75.362 42.756 C 74.902 43.168,74.121 43.721,73.628 43.985 C 72.614 44.528,71.252 45.640,69.439 47.407 C 68.757 48.070,67.570 49.056,66.800 49.597 C 66.030 50.139,64.230 51.804,62.800 53.298 C 59.571 56.672,57.011 59.231,53.391 62.705 C 51.847 64.187,50.140 66.030,49.598 66.800 C 49.056 67.570,48.070 68.757,47.407 69.439 C 45.615 71.277,44.524 72.619,43.970 73.666 C 43.697 74.180,43.143 74.891,42.737 75.247 C 42.332 75.603,42.000 76.065,42.000 76.275 C 42.000 76.484,41.595 77.023,41.100 77.471 C 39.928 78.532,38.800 79.928,38.800 80.316 C 38.800 80.485,38.440 80.883,38.000 81.200 C 37.560 81.517,37.200 82.009,37.200 82.292 C 37.200 82.575,36.660 83.372,36.000 84.063 C 35.340 84.754,34.800 85.522,34.800 85.771 C 34.800 86.020,34.440 86.483,34.000 86.800 C 33.560 87.117,33.200 87.657,33.200 88.000 C 33.200 88.343,32.840 88.883,32.400 89.200 C 31.960 89.517,31.600 90.097,31.600 90.488 C 31.600 90.880,31.442 91.200,31.249 91.200 C 31.055 91.200,30.673 91.740,30.400 92.400 C 30.127 93.060,29.745 93.600,29.551 93.600 C 29.358 93.600,29.200 93.790,29.200 94.021 C 29.200 94.253,28.750 95.105,28.200 95.914 C 27.650 96.723,27.200 97.621,27.200 97.910 C 27.200 98.198,26.840 98.820,26.400 99.292 C 25.960 99.764,25.600 100.387,25.600 100.675 C 25.600 100.964,25.420 101.200,25.200 101.200 C 24.980 101.200,24.800 101.560,24.800 102.000 C 24.800 102.440,24.620 102.800,24.400 102.800 C 24.180 102.800,24.000 103.145,24.000 103.567 C 24.000 103.988,23.865 104.393,23.700 104.467 C 23.535 104.540,22.840 105.680,22.156 107.000 C 21.472 108.320,20.347 110.453,19.656 111.741 C 18.965 113.028,18.400 114.333,18.400 114.641 C 18.400 114.948,18.220 115.200,18.000 115.200 C 17.780 115.200,17.600 115.560,17.600 116.000 C 17.600 116.440,17.420 116.800,17.200 116.800 C 16.980 116.800,16.800 117.160,16.800 117.600 C 16.800 118.040,16.620 118.400,16.400 118.400 C 16.180 118.400,16.000 118.749,16.000 119.176 C 16.000 119.603,15.820 120.064,15.600 120.200 C 15.380 120.336,15.200 120.887,15.200 121.424 C 15.200 121.961,15.020 122.400,14.800 122.400 C 14.580 122.400,14.400 122.760,14.400 123.200 C 14.400 123.640,14.220 124.000,14.000 124.000 C 13.780 124.000,13.600 124.540,13.600 125.200 C 13.600 125.860,13.420 126.400,13.200 126.400 C 12.980 126.400,12.800 126.672,12.800 127.005 C 12.800 127.338,12.641 127.923,12.447 128.305 C 12.252 128.687,11.871 129.540,11.600 130.200 C 11.329 130.860,10.963 131.689,10.787 132.041 C 10.611 132.394,10.341 133.521,10.187 134.546 C 10.033 135.571,9.748 136.508,9.554 136.629 C 9.359 136.749,9.200 137.276,9.200 137.800 C 9.200 138.324,9.020 138.864,8.800 139.000 C 8.580 139.136,8.400 139.676,8.400 140.200 C 8.400 140.724,8.220 141.264,8.000 141.400 C 7.780 141.536,7.600 142.267,7.600 143.024 C 7.600 143.781,7.420 144.400,7.200 144.400 C 6.980 144.400,6.800 145.030,6.800 145.800 C 6.800 146.570,6.620 147.200,6.400 147.200 C 6.180 147.200,6.000 147.729,6.000 148.376 C 6.000 149.023,5.820 149.664,5.600 149.800 C 5.380 149.936,5.200 150.746,5.200 151.600 C 5.200 152.454,5.020 153.264,4.800 153.400 C 4.580 153.536,4.400 154.357,4.400 155.224 C 4.400 156.091,4.220 156.800,4.000 156.800 C 3.780 156.800,3.600 157.509,3.600 158.376 C 3.600 159.243,3.420 160.064,3.200 160.200 C 2.980 160.336,2.800 161.326,2.800 162.400 C 2.800 163.474,2.620 164.464,2.400 164.600 C 2.180 164.736,2.000 165.827,2.000 167.024 C 2.000 168.221,1.820 169.200,1.600 169.200 C 1.373 169.200,1.200 170.373,1.200 171.920 C 1.200 173.563,1.002 174.838,0.700 175.140 C -0.029 175.869,-0.029 223.731,0.700 224.460 C 1.009 224.769,1.200 226.077,1.200 227.880 C 1.200 229.560,1.370 230.800,1.600 230.800 C 1.820 230.800,2.000 231.779,2.000 232.976 C 2.000 234.173,2.180 235.264,2.400 235.400 C 2.620 235.536,2.800 236.526,2.800 237.600 C 2.800 238.674,2.980 239.664,3.200 239.800 C 3.420 239.936,3.600 240.757,3.600 241.624 C 3.600 242.491,3.780 243.200,4.000 243.200 C 4.220 243.200,4.400 243.909,4.400 244.776 C 4.400 245.643,4.580 246.464,4.800 246.600 C 5.020 246.736,5.200 247.546,5.200 248.400 C 5.200 249.254,5.380 250.064,5.600 250.200 C 5.820 250.336,6.000 250.977,6.000 251.624 C 6.000 252.271,6.180 252.800,6.400 252.800 C 6.620 252.800,6.800 253.419,6.800 254.176 C 6.800 254.933,6.980 255.664,7.200 255.800 C 7.420 255.936,7.600 256.566,7.600 257.200 C 7.600 257.834,7.780 258.464,8.000 258.600 C 8.220 258.736,8.400 259.377,8.400 260.024 C 8.400 260.671,8.580 261.200,8.800 261.200 C 9.020 261.200,9.200 261.740,9.200 262.400 C 9.200 263.060,9.360 263.600,9.555 263.600 C 9.750 263.600,10.037 264.455,10.194 265.500 C 10.350 266.545,10.821 268.109,11.239 268.975 C 11.658 269.841,12.000 270.705,12.000 270.894 C 12.000 271.084,12.360 271.984,12.800 272.894 C 13.240 273.805,13.600 274.876,13.600 275.275 C 13.600 275.674,13.780 276.000,14.000 276.000 C 14.220 276.000,14.400 276.360,14.400 276.800 C 14.400 277.240,14.580 277.600,14.800 277.600 C 15.020 277.600,15.200 278.039,15.200 278.576 C 15.200 279.113,15.380 279.664,15.600 279.800 C 15.820 279.936,16.000 280.397,16.000 280.824 C 16.000 281.251,16.180 281.600,16.400 281.600 C 16.620 281.600,16.800 281.960,16.800 282.400 C 16.800 282.840,16.980 283.200,17.200 283.200 C 17.420 283.200,17.600 283.549,17.600 283.976 C 17.600 284.403,17.780 284.864,18.000 285.000 C 18.220 285.136,18.400 285.597,18.400 286.024 C 18.400 286.451,18.580 286.800,18.800 286.800 C 19.020 286.800,19.200 287.145,19.200 287.567 C 19.200 287.988,19.335 288.393,19.500 288.467 C 19.665 288.540,20.229 289.410,20.753 290.400 C 21.278 291.390,22.088 292.920,22.553 293.800 C 23.019 294.680,23.535 295.460,23.700 295.533 C 23.865 295.607,24.000 296.012,24.000 296.433 C 24.000 296.855,24.180 297.200,24.400 297.200 C 24.620 297.200,24.800 297.560,24.800 298.000 C 24.800 298.440,24.980 298.800,25.200 298.800 C 25.420 298.800,25.600 299.036,25.600 299.325 C 25.600 299.613,25.960 300.236,26.400 300.708 C 26.840 301.180,27.200 301.819,27.200 302.127 C 27.200 302.436,27.605 303.298,28.100 304.044 C 28.595 304.790,29.254 305.892,29.564 306.493 C 29.874 307.095,30.459 307.942,30.864 308.377 C 31.269 308.811,31.600 309.404,31.600 309.695 C 31.600 309.986,31.960 310.483,32.400 310.800 C 32.840 311.117,33.200 311.657,33.200 312.000 C 33.200 312.343,33.560 312.883,34.000 313.200 C 34.440 313.517,34.800 313.980,34.800 314.229 C 34.800 314.478,35.340 315.246,36.000 315.937 C 36.660 316.628,37.200 317.425,37.200 317.708 C 37.200 317.991,37.560 318.483,38.000 318.800 C 38.440 319.117,38.800 319.572,38.800 319.810 C 38.800 320.049,39.434 320.954,40.208 321.822 C 40.983 322.690,42.052 323.886,42.584 324.481 C 43.116 325.075,43.757 325.945,44.008 326.415 C 44.527 327.385,45.535 328.605,47.700 330.885 C 48.525 331.754,49.200 332.614,49.200 332.796 C 49.200 332.977,51.085 334.988,53.388 337.263 C 55.691 339.538,58.122 341.940,58.790 342.600 C 59.458 343.260,61.218 345.064,62.702 346.609 C 64.186 348.153,66.017 349.854,66.771 350.387 C 67.526 350.920,69.129 352.311,70.334 353.478 C 71.539 354.645,72.657 355.600,72.820 355.600 C 72.982 355.600,73.693 356.140,74.400 356.800 C 75.107 357.460,75.836 358.000,76.022 358.000 C 76.207 358.000,76.804 358.405,77.347 358.900 C 79.129 360.522,80.004 361.200,80.316 361.200 C 80.485 361.200,80.883 361.560,81.200 362.000 C 81.517 362.440,82.009 362.800,82.292 362.800 C 82.575 362.800,83.372 363.340,84.063 364.000 C 84.754 364.660,85.522 365.200,85.771 365.200 C 86.020 365.200,86.483 365.560,86.800 366.000 C 87.117 366.440,87.657 366.800,88.000 366.800 C 88.343 366.800,88.883 367.160,89.200 367.600 C 89.517 368.040,90.014 368.400,90.305 368.400 C 90.596 368.400,91.220 368.760,91.692 369.200 C 92.164 369.640,92.787 370.000,93.075 370.000 C 93.364 370.000,93.600 370.180,93.600 370.400 C 93.600 370.620,93.836 370.800,94.125 370.800 C 94.413 370.800,94.998 371.115,95.425 371.500 C 95.851 371.885,96.740 372.470,97.400 372.799 C 98.060 373.129,98.690 373.489,98.800 373.599 C 99.315 374.116,101.592 375.200,102.162 375.200 C 102.513 375.200,102.800 375.380,102.800 375.600 C 102.800 375.820,103.145 376.000,103.567 376.000 C 103.988 376.000,104.393 376.135,104.467 376.300 C 104.540 376.465,105.410 377.031,106.400 377.557 C 112.112 380.593,114.169 381.600,114.655 381.600 C 114.955 381.600,115.200 381.780,115.200 382.000 C 115.200 382.220,115.560 382.400,116.000 382.400 C 116.440 382.400,116.800 382.580,116.800 382.800 C 116.800 383.020,117.160 383.200,117.600 383.200 C 118.040 383.200,118.400 383.380,118.400 383.600 C 118.400 383.820,118.749 384.000,119.176 384.000 C 119.603 384.000,120.064 384.180,120.200 384.400 C 120.336 384.620,120.887 384.800,121.424 384.800 C 121.961 384.800,122.400 384.980,122.400 385.200 C 122.400 385.420,122.760 385.600,123.200 385.600 C 123.640 385.600,124.000 385.780,124.000 386.000 C 124.000 386.220,124.540 386.400,125.200 386.400 C 125.860 386.400,126.400 386.580,126.400 386.800 C 126.400 387.020,126.672 387.200,127.005 387.200 C 127.338 387.200,127.923 387.359,128.305 387.553 C 128.687 387.748,129.540 388.129,130.200 388.400 C 130.860 388.671,131.713 389.052,132.095 389.247 C 132.477 389.441,133.141 389.600,133.571 389.600 C 134.001 389.600,134.464 389.780,134.600 390.000 C 134.736 390.220,135.276 390.400,135.800 390.400 C 136.324 390.400,136.854 390.563,136.977 390.763 C 137.100 390.962,138.100 391.249,139.200 391.400 C 140.300 391.551,141.300 391.838,141.423 392.037 C 141.546 392.237,142.166 392.400,142.800 392.400 C 143.434 392.400,144.064 392.580,144.200 392.800 C 144.336 393.020,145.067 393.200,145.824 393.200 C 146.581 393.200,147.200 393.380,147.200 393.600 C 147.200 393.820,147.729 394.000,148.376 394.000 C 149.023 394.000,149.664 394.180,149.800 394.400 C 149.936 394.620,150.656 394.800,151.400 394.800 C 152.144 394.800,152.864 394.980,153.000 395.200 C 153.136 395.420,154.047 395.600,155.024 395.600 C 156.001 395.600,156.800 395.780,156.800 396.000 C 156.800 396.220,157.520 396.400,158.400 396.400 C 159.280 396.400,160.000 396.580,160.000 396.800 C 160.000 397.020,160.990 397.200,162.200 397.200 C 163.410 397.200,164.400 397.380,164.400 397.600 C 164.400 397.822,165.467 398.000,166.800 398.000 C 168.133 398.000,169.200 398.178,169.200 398.400 C 169.200 398.628,170.389 398.800,171.967 398.800 C 173.824 398.800,174.788 398.964,174.900 399.300 C 175.144 400.032,224.856 400.032,225.100 399.300 C 225.212 398.964,226.176 398.800,228.033 398.800 C 229.611 398.800,230.800 398.628,230.800 398.400 C 230.800 398.178,231.867 398.000,233.200 398.000 C 234.533 398.000,235.600 397.822,235.600 397.600 C 235.600 397.380,236.590 397.200,237.800 397.200 C 239.010 397.200,240.000 397.020,240.000 396.800 C 240.000 396.580,240.720 396.400,241.600 396.400 C 242.480 396.400,243.200 396.220,243.200 396.000 C 243.200 395.780,243.999 395.600,244.976 395.600 C 245.953 395.600,246.864 395.420,247.000 395.200 C 247.136 394.980,247.856 394.800,248.600 394.800 C 249.344 394.800,250.064 394.620,250.200 394.400 C 250.336 394.180,250.977 394.000,251.624 394.000 C 252.271 394.000,252.800 393.820,252.800 393.600 C 252.800 393.380,253.520 393.200,254.400 393.200 C 255.280 393.200,256.000 393.020,256.000 392.800 C 256.000 392.580,256.529 392.400,257.176 392.400 C 257.823 392.400,258.454 392.237,258.577 392.037 C 258.700 391.838,259.700 391.551,260.800 391.400 C 261.900 391.249,262.900 390.962,263.023 390.763 C 263.146 390.563,263.676 390.400,264.200 390.400 C 264.724 390.400,265.264 390.220,265.400 390.000 C 265.536 389.780,265.999 389.600,266.429 389.600 C 266.859 389.600,267.523 389.441,267.905 389.247 C 268.287 389.052,269.050 388.716,269.600 388.500 C 271.354 387.811,272.979 387.117,273.695 386.753 C 274.077 386.559,274.752 386.400,275.195 386.400 C 275.638 386.400,276.000 386.220,276.000 386.000 C 276.000 385.780,276.360 385.600,276.800 385.600 C 277.240 385.600,277.600 385.420,277.600 385.200 C 277.600 384.980,278.039 384.800,278.576 384.800 C 279.113 384.800,279.664 384.620,279.800 384.400 C 279.936 384.180,280.397 384.000,280.824 384.000 C 281.251 384.000,281.600 383.820,281.600 383.600 C 281.600 383.380,281.960 383.200,282.400 383.200 C 282.840 383.200,283.200 383.020,283.200 382.800 C 283.200 382.580,283.560 382.400,284.000 382.400 C 284.440 382.400,284.800 382.220,284.800 382.000 C 284.800 381.780,285.045 381.600,285.345 381.600 C 285.831 381.600,287.888 380.593,293.600 377.557 C 294.590 377.031,295.460 376.465,295.533 376.300 C 295.607 376.135,296.012 376.000,296.433 376.000 C 296.855 376.000,297.200 375.820,297.200 375.600 C 297.200 375.380,297.487 375.200,297.838 375.200 C 298.413 375.200,300.700 374.108,301.200 373.595 C 301.310 373.482,302.255 372.958,303.300 372.432 C 304.345 371.905,305.200 371.366,305.200 371.235 C 305.200 371.103,305.706 370.771,306.325 370.497 C 306.944 370.224,307.836 369.640,308.308 369.200 C 308.780 368.760,309.404 368.400,309.695 368.400 C 309.986 368.400,310.483 368.040,310.800 367.600 C 311.117 367.160,311.657 366.800,312.000 366.800 C 312.343 366.800,312.883 366.440,313.200 366.000 C 313.517 365.560,313.980 365.200,314.229 365.200 C 314.478 365.200,315.246 364.660,315.937 364.000 C 316.628 363.340,317.425 362.800,317.708 362.800 C 317.991 362.800,318.483 362.440,318.800 362.000 C 319.117 361.560,319.572 361.200,319.810 361.200 C 320.049 361.200,320.931 360.570,321.772 359.800 C 322.613 359.030,323.423 358.400,323.572 358.400 C 323.721 358.400,324.531 357.770,325.372 357.000 C 326.213 356.230,327.030 355.600,327.188 355.600 C 327.346 355.600,328.461 354.645,329.666 353.478 C 330.871 352.311,332.474 350.919,333.229 350.385 C 333.983 349.851,336.180 347.791,338.112 345.807 C 342.342 341.463,341.463 342.342,345.807 338.112 C 347.791 336.180,349.851 333.983,350.385 333.229 C 350.919 332.474,352.311 330.871,353.478 329.666 C 354.645 328.461,355.600 327.346,355.600 327.188 C 355.600 327.030,356.230 326.213,357.000 325.372 C 357.770 324.531,358.400 323.721,358.400 323.572 C 358.400 323.423,359.030 322.613,359.800 321.772 C 360.570 320.931,361.200 320.049,361.200 319.810 C 361.200 319.572,361.560 319.117,362.000 318.800 C 362.440 318.483,362.800 317.991,362.800 317.708 C 362.800 317.425,363.340 316.628,364.000 315.937 C 364.660 315.246,365.200 314.478,365.200 314.229 C 365.200 313.980,365.560 313.517,366.000 313.200 C 366.440 312.883,366.800 312.343,366.800 312.000 C 366.800 311.657,367.160 311.117,367.600 310.800 C 368.040 310.483,368.400 309.986,368.400 309.695 C 368.400 309.404,368.760 308.780,369.200 308.308 C 369.640 307.836,370.224 306.944,370.497 306.325 C 370.771 305.706,371.103 305.200,371.235 305.200 C 371.366 305.200,371.905 304.345,372.432 303.300 C 372.958 302.255,373.482 301.310,373.595 301.200 C 374.108 300.700,375.200 298.413,375.200 297.838 C 375.200 297.487,375.380 297.200,375.600 297.200 C 375.820 297.200,376.000 296.855,376.000 296.433 C 376.000 296.012,376.135 295.607,376.300 295.533 C 376.465 295.460,377.029 294.590,377.553 293.600 C 378.078 292.610,378.888 291.080,379.353 290.200 C 379.819 289.320,380.335 288.540,380.500 288.467 C 380.665 288.393,380.800 287.988,380.800 287.567 C 380.800 287.145,380.980 286.800,381.200 286.800 C 381.420 286.800,381.600 286.350,381.600 285.800 C 381.600 285.250,381.780 284.800,382.000 284.800 C 382.220 284.800,382.400 284.440,382.400 284.000 C 382.400 283.560,382.580 283.200,382.800 283.200 C 383.020 283.200,383.200 282.840,383.200 282.400 C 383.200 281.960,383.380 281.600,383.600 281.600 C 383.820 281.600,384.000 281.251,384.000 280.824 C 384.000 280.397,384.180 279.936,384.400 279.800 C 384.620 279.664,384.800 279.113,384.800 278.576 C 384.800 278.039,384.980 277.600,385.200 277.600 C 385.420 277.600,385.600 277.240,385.600 276.800 C 385.600 276.360,385.780 276.000,386.000 276.000 C 386.220 276.000,386.400 275.645,386.400 275.212 C 386.400 274.779,386.760 273.783,387.200 273.000 C 387.640 272.217,388.000 271.221,388.000 270.788 C 388.000 270.355,388.180 270.000,388.400 270.000 C 388.620 270.000,388.800 269.561,388.800 269.024 C 388.800 268.487,388.980 267.936,389.200 267.800 C 389.420 267.664,389.600 267.143,389.600 266.643 C 389.600 266.143,389.723 265.610,389.874 265.459 C 390.352 264.981,391.178 262.269,391.445 260.300 C 391.587 259.255,391.860 258.400,392.052 258.400 C 392.243 258.400,392.400 257.860,392.400 257.200 C 392.400 256.540,392.580 256.000,392.800 256.000 C 393.020 256.000,393.200 255.280,393.200 254.400 C 393.200 253.520,393.380 252.800,393.600 252.800 C 393.820 252.800,394.000 252.271,394.000 251.624 C 394.000 250.977,394.180 250.336,394.400 250.200 C 394.620 250.064,394.800 249.254,394.800 248.400 C 394.800 247.546,394.980 246.736,395.200 246.600 C 395.420 246.464,395.600 245.643,395.600 244.776 C 395.600 243.909,395.780 243.200,396.000 243.200 C 396.220 243.200,396.400 242.491,396.400 241.624 C 396.400 240.757,396.580 239.936,396.800 239.800 C 397.020 239.664,397.200 238.674,397.200 237.600 C 397.200 236.526,397.380 235.536,397.600 235.400 C 397.820 235.264,398.000 234.173,398.000 232.976 C 398.000 231.779,398.180 230.800,398.400 230.800 C 398.630 230.800,398.800 229.560,398.800 227.880 C 398.800 226.077,398.991 224.769,399.300 224.460 C 400.030 223.730,400.030 175.943,399.300 175.700 C 398.956 175.585,398.800 174.544,398.800 172.367 C 398.800 170.522,398.633 169.200,398.400 169.200 C 398.180 169.200,398.000 168.221,398.000 167.024 C 398.000 165.827,397.820 164.736,397.600 164.600 C 397.380 164.464,397.200 163.463,397.200 162.376 C 397.200 161.289,397.020 160.400,396.800 160.400 C 396.580 160.400,396.400 159.590,396.400 158.600 C 396.400 157.610,396.220 156.800,396.000 156.800 C 395.780 156.800,395.600 156.091,395.600 155.224 C 395.600 154.357,395.420 153.536,395.200 153.400 C 394.980 153.264,394.800 152.454,394.800 151.600 C 394.800 150.746,394.620 149.936,394.400 149.800 C 394.180 149.664,394.000 149.023,394.000 148.376 C 394.000 147.729,393.820 147.200,393.600 147.200 C 393.380 147.200,393.200 146.570,393.200 145.800 C 393.200 145.030,393.020 144.400,392.800 144.400 C 392.580 144.400,392.400 143.781,392.400 143.024 C 392.400 142.267,392.237 141.546,392.037 141.423 C 391.838 141.300,391.551 140.300,391.400 139.200 C 391.249 138.100,390.962 137.100,390.763 136.977 C 390.563 136.854,390.400 136.324,390.400 135.800 C 390.400 135.276,390.220 134.736,390.000 134.600 C 389.780 134.464,389.600 134.001,389.600 133.571 C 389.600 133.141,389.420 132.432,389.200 131.995 C 388.980 131.558,388.620 130.842,388.400 130.405 C 388.180 129.968,388.000 129.248,388.000 128.805 C 388.000 128.362,387.820 128.000,387.600 128.000 C 387.380 128.000,387.200 127.640,387.200 127.200 C 387.200 126.760,387.020 126.400,386.800 126.400 C 386.580 126.400,386.400 125.860,386.400 125.200 C 386.400 124.540,386.220 124.000,386.000 124.000 C 385.780 124.000,385.600 123.640,385.600 123.200 C 385.600 122.760,385.420 122.400,385.200 122.400 C 384.980 122.400,384.800 121.961,384.800 121.424 C 384.800 120.887,384.620 120.336,384.400 120.200 C 384.180 120.064,384.000 119.603,384.000 119.176 C 384.000 118.749,383.820 118.400,383.600 118.400 C 383.380 118.400,383.200 118.040,383.200 117.600 C 383.200 117.160,383.020 116.800,382.800 116.800 C 382.580 116.800,382.400 116.440,382.400 116.000 C 382.400 115.560,382.220 115.200,382.000 115.200 C 381.780 115.200,381.600 114.947,381.600 114.638 C 381.600 114.111,380.050 110.840,379.592 110.400 C 379.477 110.290,378.758 108.940,377.994 107.400 C 377.229 105.860,376.468 104.540,376.302 104.467 C 376.136 104.393,376.000 103.988,376.000 103.567 C 376.000 103.145,375.820 102.800,375.600 102.800 C 375.380 102.800,375.200 102.513,375.200 102.162 C 375.200 101.592,374.116 99.315,373.599 98.800 C 373.489 98.690,373.129 98.060,372.799 97.400 C 372.470 96.740,371.885 95.851,371.500 95.425 C 371.115 94.998,370.800 94.413,370.800 94.125 C 370.800 93.836,370.620 93.600,370.400 93.600 C 370.180 93.600,370.000 93.364,370.000 93.075 C 370.000 92.787,369.640 92.164,369.200 91.692 C 368.760 91.220,368.400 90.596,368.400 90.305 C 368.400 90.014,368.040 89.517,367.600 89.200 C 367.160 88.883,366.800 88.343,366.800 88.000 C 366.800 87.657,366.440 87.117,366.000 86.800 C 365.560 86.483,365.200 86.020,365.200 85.771 C 365.200 85.522,364.660 84.754,364.000 84.063 C 363.340 83.372,362.800 82.575,362.800 82.292 C 362.800 82.009,362.440 81.517,362.000 81.200 C 361.560 80.883,361.200 80.485,361.200 80.316 C 361.200 79.954,360.092 78.549,359.100 77.654 C 358.715 77.306,358.400 76.827,358.400 76.589 C 358.400 76.351,357.770 75.469,357.000 74.628 C 356.230 73.787,355.600 72.970,355.600 72.812 C 355.600 72.654,354.645 71.539,353.478 70.334 C 352.311 69.129,350.920 67.526,350.387 66.771 C 349.854 66.017,348.153 64.186,346.609 62.702 C 345.064 61.218,343.260 59.458,342.600 58.790 C 341.940 58.122,339.538 55.691,337.263 53.388 C 334.988 51.085,332.975 49.200,332.790 49.200 C 332.605 49.200,331.548 48.345,330.442 47.300 C 327.927 44.924,327.555 44.618,326.484 44.045 C 326.007 43.790,325.191 43.181,324.670 42.691 C 322.487 40.639,320.181 38.800,319.793 38.800 C 319.564 38.800,319.117 38.440,318.800 38.000 C 318.483 37.560,318.038 37.200,317.812 37.199 C 317.585 37.199,316.770 36.659,316.000 36.000 C 315.230 35.341,314.415 34.801,314.188 34.801 C 313.962 34.800,313.517 34.440,313.200 34.000 C 312.883 33.560,312.343 33.200,312.000 33.200 C 311.657 33.200,311.117 32.840,310.800 32.400 C 310.483 31.960,309.986 31.600,309.695 31.600 C 309.404 31.600,308.811 31.269,308.377 30.864 C 307.942 30.459,307.095 29.874,306.493 29.564 C 305.892 29.254,304.790 28.595,304.044 28.100 C 303.298 27.605,302.436 27.200,302.127 27.200 C 301.819 27.200,301.180 26.840,300.708 26.400 C 300.236 25.960,299.613 25.600,299.325 25.600 C 299.036 25.600,298.800 25.420,298.800 25.200 C 298.800 24.980,298.440 24.800,298.000 24.800 C 297.560 24.800,297.200 24.620,297.200 24.400 C 297.200 24.180,296.840 24.000,296.400 24.000 C 295.960 24.000,295.600 23.820,295.600 23.600 C 295.600 23.380,295.240 23.200,294.800 23.200 C 294.360 23.200,294.000 23.064,294.000 22.898 C 294.000 22.731,293.415 22.341,292.700 22.030 C 291.985 21.719,291.310 21.359,291.200 21.230 C 290.820 20.784,285.886 18.400,285.344 18.400 C 285.045 18.400,284.800 18.220,284.800 18.000 C 284.800 17.780,284.440 17.600,284.000 17.600 C 283.560 17.600,283.200 17.420,283.200 17.200 C 283.200 16.980,282.840 16.800,282.400 16.800 C 281.960 16.800,281.600 16.653,281.600 16.472 C 281.600 16.292,280.700 15.900,279.600 15.600 C 278.500 15.300,277.600 14.908,277.600 14.728 C 277.600 14.547,277.240 14.400,276.800 14.400 C 276.360 14.400,276.000 14.220,276.000 14.000 C 276.000 13.780,275.674 13.600,275.275 13.600 C 274.876 13.600,273.805 13.240,272.894 12.800 C 271.984 12.360,271.048 12.000,270.814 12.000 C 270.580 12.000,270.032 11.820,269.595 11.600 C 269.158 11.380,268.466 11.035,268.059 10.833 C 267.651 10.632,266.479 10.341,265.454 10.187 C 264.429 10.033,263.492 9.748,263.371 9.554 C 263.251 9.359,262.724 9.200,262.200 9.200 C 261.676 9.200,261.136 9.020,261.000 8.800 C 260.864 8.580,260.324 8.400,259.800 8.400 C 259.276 8.400,258.736 8.220,258.600 8.000 C 258.464 7.780,257.834 7.600,257.200 7.600 C 256.566 7.600,255.936 7.420,255.800 7.200 C 255.664 6.980,254.933 6.800,254.176 6.800 C 253.419 6.800,252.800 6.620,252.800 6.400 C 252.800 6.180,252.271 6.000,251.624 6.000 C 250.977 6.000,250.336 5.820,250.200 5.600 C 250.064 5.380,249.344 5.200,248.600 5.200 C 247.856 5.200,247.136 5.020,247.000 4.800 C 246.864 4.580,245.953 4.400,244.976 4.400 C 243.999 4.400,243.200 4.220,243.200 4.000 C 243.200 3.780,242.480 3.600,241.600 3.600 C 240.720 3.600,240.000 3.420,240.000 3.200 C 240.000 2.980,239.010 2.800,237.800 2.800 C 236.590 2.800,235.600 2.620,235.600 2.400 C 235.600 2.178,234.533 2.000,233.200 2.000 C 231.867 2.000,230.800 1.822,230.800 1.600 C 230.800 1.367,229.478 1.200,227.633 1.200 C 225.494 1.200,224.414 1.041,224.304 0.711 C 224.143 0.228,187.957 -0.122,179.100 0.274 M174.738 116.251 C 180.738 117.979,185.591 122.011,187.841 127.140 C 189.696 131.367,189.658 131.037,190.041 146.400 C 190.231 153.990,190.564 162.630,190.782 165.600 C 191.369 173.602,191.942 180.475,192.416 185.200 C 193.516 196.166,193.761 198.413,194.794 207.000 C 195.005 208.760,195.356 211.730,195.573 213.600 C 195.965 216.984,196.458 220.864,197.173 226.200 C 197.380 227.740,197.731 230.440,197.954 232.200 C 198.176 233.960,198.546 236.660,198.776 238.200 C 199.005 239.740,199.297 241.720,199.425 242.600 C 200.024 246.740,202.454 262.491,202.856 264.848 C 205.351 279.451,196.437 286.599,177.925 284.842 C 168.169 283.915,162.290 281.272,158.843 276.262 C 157.455 274.245,156.834 273.163,151.003 262.600 C 149.060 259.080,147.112 255.570,146.674 254.800 C 146.235 254.030,145.500 252.680,145.038 251.800 C 144.577 250.920,144.110 250.110,144.000 250.000 C 143.890 249.890,143.423 249.080,142.962 248.200 C 142.500 247.320,141.708 245.880,141.200 245.000 C 140.692 244.120,139.792 242.500,139.200 241.400 C 138.608 240.300,137.556 238.447,136.862 237.282 C 136.168 236.118,135.600 235.092,135.600 235.004 C 135.600 234.915,134.996 233.798,134.258 232.521 C 132.806 230.009,130.785 226.349,129.442 223.800 C 128.979 222.920,128.510 222.110,128.400 222.000 C 128.290 221.890,127.823 221.080,127.362 220.200 C 126.900 219.320,126.109 217.880,125.603 217.000 C 125.096 216.120,124.143 214.410,123.483 213.200 C 122.824 211.990,122.156 210.820,121.998 210.600 C 121.841 210.380,120.935 208.760,119.986 207.000 C 117.880 203.095,116.803 201.303,116.801 201.697 C 116.801 201.861,117.233 204.291,117.763 207.097 C 118.293 209.904,118.850 212.920,119.001 213.800 C 119.152 214.680,119.424 216.210,119.604 217.200 C 120.327 221.172,120.860 224.328,121.226 226.800 C 121.438 228.230,121.787 230.480,122.003 231.800 C 125.085 250.657,126.127 264.887,124.726 269.000 C 122.633 275.148,118.688 278.672,111.964 280.397 C 108.901 281.183,93.235 280.518,92.220 279.559 C 92.011 279.362,91.541 279.200,91.176 279.200 C 89.856 279.200,85.387 276.556,83.401 274.600 C 80.160 271.408,79.518 269.554,78.758 261.200 C 78.185 254.912,77.394 247.039,76.404 237.800 C 75.845 232.573,75.254 226.928,74.823 222.700 C 74.616 220.665,74.246 217.110,74.000 214.800 C 73.754 212.490,73.394 208.980,73.200 207.000 C 73.006 205.020,72.647 201.510,72.402 199.200 C 72.158 196.890,71.798 193.470,71.604 191.600 C 71.208 187.795,70.596 182.004,70.019 176.600 C 69.327 170.120,67.275 148.729,66.776 142.791 C 65.653 129.420,69.421 123.041,79.800 120.743 C 94.790 117.424,108.667 123.025,113.699 134.426 C 115.179 137.780,115.698 139.026,118.603 146.200 C 120.295 150.380,121.950 154.430,122.281 155.200 C 122.611 155.970,123.025 156.960,123.201 157.400 C 123.377 157.840,123.898 159.053,124.360 160.096 C 124.822 161.138,125.200 162.263,125.200 162.596 C 125.200 162.928,125.380 163.200,125.600 163.200 C 125.820 163.200,126.000 163.472,126.000 163.805 C 126.000 164.138,126.159 164.723,126.353 165.105 C 126.681 165.750,127.046 166.613,127.959 168.900 C 128.157 169.395,128.607 170.475,128.959 171.300 C 129.634 172.879,129.919 173.563,131.923 178.400 C 133.824 182.988,138.187 193.627,138.813 195.200 C 139.120 195.970,140.029 197.860,140.834 199.400 C 141.639 200.940,142.904 203.370,143.646 204.800 C 144.388 206.230,145.086 207.490,145.198 207.600 C 145.309 207.710,146.098 209.150,146.950 210.800 C 148.913 214.598,149.386 215.096,149.039 213.000 C 148.771 211.384,148.271 207.431,147.545 201.200 C 147.328 199.330,146.991 196.540,146.797 195.000 C 146.603 193.460,146.244 190.490,146.000 188.400 C 145.756 186.310,145.395 183.340,145.200 181.800 C 145.004 180.260,144.656 177.470,144.426 175.600 C 144.197 173.730,143.802 170.580,143.548 168.600 C 142.606 161.236,143.515 131.238,144.773 128.200 C 144.955 127.760,145.415 126.652,145.796 125.738 C 146.712 123.536,149.920 120.364,152.733 118.880 C 154.769 117.805,156.020 117.369,160.800 116.064 C 163.234 115.399,172.198 115.520,174.738 116.251 M277.000 117.771 C 291.769 119.391,300.920 121.481,307.538 124.743 C 308.494 125.214,309.529 125.600,309.838 125.600 C 310.147 125.600,310.400 125.780,310.400 126.000 C 310.400 126.220,310.745 126.400,311.167 126.400 C 311.588 126.400,311.993 126.535,312.067 126.700 C 312.140 126.865,313.421 127.630,314.913 128.400 C 316.404 129.170,318.097 130.205,318.675 130.700 C 319.252 131.195,319.844 131.600,319.991 131.600 C 320.682 131.600,327.938 139.358,328.360 140.548 C 328.448 140.797,328.637 141.090,328.781 141.200 C 329.470 141.728,331.785 147.764,332.616 151.200 C 334.454 158.797,334.430 200.024,332.584 207.131 C 328.149 224.201,313.856 234.636,290.800 237.638 C 288.930 237.882,283.899 238.198,279.621 238.341 L 271.842 238.600 271.953 248.200 C 272.210 270.320,270.980 274.213,262.400 278.427 C 261.043 279.094,259.899 279.434,255.894 280.359 C 253.445 280.926,241.510 280.932,238.731 280.368 C 230.288 278.656,225.962 275.276,223.670 268.600 C 223.427 267.892,223.165 260.190,223.031 249.800 C 222.698 224.070,222.068 185.746,221.619 164.000 C 221.403 153.550,221.220 144.262,221.213 143.360 C 221.202 141.944,220.921 141.423,219.159 139.560 C 213.876 133.970,214.320 130.912,221.213 125.423 C 230.064 118.375,253.366 115.179,277.000 117.771 M269.189 144.614 C 268.802 145.079,268.746 146.406,268.958 150.114 C 269.111 152.801,269.412 159.950,269.626 166.000 C 269.981 175.997,270.160 181.007,271.044 205.500 L 271.322 213.200 273.042 213.200 C 276.917 213.200,284.014 210.503,286.609 208.044 C 289.897 204.928,292.800 200.586,292.800 198.783 C 292.800 198.378,292.960 197.948,293.157 197.827 C 294.130 197.225,293.952 181.505,292.802 166.400 C 292.609 163.870,292.342 160.360,292.209 158.600 C 291.621 150.819,287.511 144.800,282.786 144.800 C 282.380 144.800,281.936 144.620,281.800 144.400 C 281.361 143.690,269.793 143.886,269.189 144.614 " stroke="none" fill="#040404" fill-rule="evenodd"></path><path id="path2" d="M161.400 116.000 L 160.600 116.344 161.400 116.325 C 161.840 116.314,162.740 116.168,163.400 116.000 L 164.600 115.695 163.400 115.675 C 162.740 115.665,161.840 115.811,161.400 116.000 M172.400 116.000 C 173.768 116.438,174.819 116.438,173.800 116.000 C 173.360 115.811,172.640 115.662,172.200 115.668 C 171.557 115.677,171.596 115.743,172.400 116.000 M254.522 117.099 C 256.899 117.170,260.679 117.169,262.922 117.098 C 265.165 117.027,263.220 116.969,258.600 116.969 C 253.980 116.970,252.145 117.028,254.522 117.099 M246.500 117.476 C 246.885 117.576,247.515 117.576,247.900 117.476 C 248.285 117.375,247.970 117.293,247.200 117.293 C 246.430 117.293,246.115 117.375,246.500 117.476 M270.105 117.487 C 270.714 117.579,271.614 117.577,272.105 117.482 C 272.597 117.387,272.100 117.311,271.000 117.314 C 269.900 117.317,269.497 117.395,270.105 117.487 M243.505 117.883 C 244.002 117.979,244.722 117.975,245.105 117.875 C 245.487 117.775,245.080 117.696,244.200 117.701 C 243.320 117.705,243.007 117.787,243.505 117.883 M274.100 117.887 C 274.705 117.978,275.695 117.978,276.300 117.887 C 276.905 117.795,276.410 117.720,275.200 117.720 C 273.990 117.720,273.495 117.795,274.100 117.887 M179.210 118.126 C 179.809 118.774,182.495 120.397,182.018 119.822 C 181.710 119.451,180.905 118.866,180.229 118.523 C 179.553 118.179,179.095 118.001,179.210 118.126 M279.800 118.385 C 281.022 118.711,284.270 118.920,283.967 118.653 C 283.875 118.572,282.630 118.407,281.200 118.285 C 279.562 118.146,279.044 118.182,279.800 118.385 M150.480 120.296 C 149.368 121.118,148.517 121.851,148.590 121.923 C 148.662 121.995,149.594 121.392,150.661 120.583 C 152.932 118.860,153.001 118.800,152.717 118.800 C 152.598 118.800,151.592 119.473,150.480 120.296 M233.466 119.874 C 232.403 120.200,231.603 120.536,231.690 120.623 C 231.776 120.709,233.006 120.438,234.423 120.021 C 235.841 119.603,236.640 119.266,236.200 119.272 C 235.760 119.278,234.530 119.549,233.466 119.874 M287.600 119.477 C 288.150 119.570,289.929 119.912,291.552 120.237 C 293.176 120.562,294.590 120.744,294.693 120.640 C 294.797 120.536,294.188 120.334,293.341 120.189 C 292.493 120.045,291.170 119.764,290.400 119.566 C 289.630 119.367,288.460 119.228,287.800 119.257 C 286.729 119.303,286.708 119.327,287.600 119.477 M88.100 119.876 C 88.485 119.976,89.115 119.976,89.500 119.876 C 89.885 119.775,89.570 119.693,88.800 119.693 C 88.030 119.693,87.715 119.775,88.100 119.876 M83.507 120.290 C 84.226 120.379,85.306 120.377,85.907 120.286 C 86.508 120.195,85.920 120.122,84.600 120.124 C 83.280 120.126,82.788 120.201,83.507 120.290 M92.307 120.290 C 93.026 120.379,94.106 120.377,94.707 120.286 C 95.308 120.195,94.720 120.122,93.400 120.124 C 92.080 120.126,91.588 120.201,92.307 120.290 M295.233 120.943 C 295.325 121.021,296.030 121.201,296.800 121.342 C 297.785 121.523,298.022 121.482,297.600 121.206 C 297.058 120.850,294.837 120.603,295.233 120.943 M74.900 122.234 C 74.185 122.546,73.600 122.890,73.600 122.998 C 73.600 123.176,76.776 122.051,77.167 121.735 C 77.595 121.388,76.062 121.726,74.900 122.234 M100.033 121.749 C 100.445 122.117,102.800 123.200,102.800 123.021 C 102.800 122.790,100.582 121.600,100.153 121.600 C 99.996 121.600,99.942 121.667,100.033 121.749 M226.893 122.180 C 225.647 122.868,225.256 123.306,226.212 122.943 C 227.703 122.375,228.999 121.605,228.400 121.642 C 228.070 121.662,227.392 121.904,226.893 122.180 M298.433 121.744 C 298.525 121.823,299.140 122.008,299.800 122.156 C 300.676 122.352,300.838 122.315,300.400 122.018 C 299.860 121.653,298.032 121.398,298.433 121.744 M147.329 123.300 C 146.884 123.795,146.376 124.470,146.201 124.800 C 145.863 125.437,145.955 125.350,147.576 123.500 C 148.106 122.895,148.449 122.400,148.339 122.400 C 148.229 122.400,147.775 122.805,147.329 123.300 M69.065 127.552 C 68.479 128.628,68.003 129.664,68.007 129.854 C 68.011 130.044,68.552 129.225,69.208 128.034 C 69.865 126.843,70.341 125.807,70.266 125.732 C 70.191 125.657,69.650 126.476,69.065 127.552 M217.578 128.700 L 216.200 130.200 217.700 128.822 C 219.096 127.538,219.384 127.200,219.078 127.200 C 219.012 127.200,218.337 127.875,217.578 128.700 M144.667 128.267 C 144.520 128.413,144.411 128.908,144.425 129.367 C 144.449 130.133,144.482 130.123,144.834 129.242 C 145.226 128.263,145.144 127.789,144.667 128.267 M110.627 130.200 C 112.000 132.000,112.268 132.003,111.104 130.205 C 110.607 129.438,110.056 128.808,109.880 128.805 C 109.703 128.802,110.040 129.430,110.627 130.200 M315.600 128.942 C 315.600 129.249,318.423 130.910,318.617 130.717 C 318.713 130.621,318.073 130.139,317.196 129.646 C 316.318 129.152,315.600 128.836,315.600 128.942 M320.200 132.170 C 320.860 132.742,321.760 133.404,322.200 133.641 C 322.640 133.877,322.460 133.603,321.800 133.030 C 321.140 132.458,320.240 131.796,319.800 131.559 C 319.360 131.323,319.540 131.597,320.200 132.170 M189.488 134.200 C 189.611 135.520,189.776 136.675,189.856 136.767 C 190.135 137.089,189.916 133.788,189.593 132.800 C 189.389 132.179,189.349 132.709,189.488 134.200 M143.868 134.159 C 143.720 135.233,143.625 137.122,143.655 138.356 C 143.699 140.149,143.779 139.836,144.051 136.800 C 144.420 132.688,144.302 130.991,143.868 134.159 M66.531 138.200 C 66.533 139.740,66.605 140.321,66.692 139.491 C 66.779 138.661,66.777 137.401,66.689 136.691 C 66.600 135.981,66.529 136.660,66.531 138.200 M115.030 138.400 C 115.409 139.390,115.887 140.380,116.091 140.600 C 116.295 140.820,116.150 140.190,115.770 139.200 C 115.391 138.210,114.913 137.220,114.709 137.000 C 114.505 136.780,114.650 137.410,115.030 138.400 M66.920 143.200 C 66.920 144.410,66.995 144.905,67.087 144.300 C 67.178 143.695,67.178 142.705,67.087 142.100 C 66.995 141.495,66.920 141.990,66.920 143.200 M221.198 146.519 L 221.397 151.800 221.511 146.833 C 221.574 144.101,221.485 141.724,221.313 141.551 C 221.141 141.379,221.089 143.614,221.198 146.519 M273.500 143.896 C 274.875 143.974,277.125 143.974,278.500 143.896 C 279.875 143.818,278.750 143.754,276.000 143.754 C 273.250 143.754,272.125 143.818,273.500 143.896 M285.600 145.705 C 286.589 146.727,289.650 148.748,288.800 147.818 C 288.250 147.216,287.260 146.448,286.600 146.111 C 285.940 145.774,285.490 145.591,285.600 145.705 M67.489 150.600 C 67.608 152.580,67.772 154.275,67.853 154.367 C 68.124 154.674,67.944 150.619,67.606 148.800 C 67.370 147.531,67.336 148.063,67.489 150.600 M143.061 152.662 C 142.735 157.988,142.769 164.385,143.128 165.271 C 143.278 165.639,143.443 161.994,143.496 157.171 C 143.600 147.548,143.462 146.110,143.061 152.662 M268.912 154.600 C 268.904 156.140,269.026 159.290,269.182 161.600 L 269.466 165.800 269.491 162.400 C 269.504 160.530,269.383 157.380,269.221 155.400 C 268.928 151.815,268.927 151.812,268.912 154.600 M291.206 152.633 C 291.209 153.055,291.395 153.670,291.618 154.000 C 291.915 154.438,291.952 154.276,291.756 153.400 C 291.427 151.929,291.198 151.610,291.206 152.633 M332.928 155.200 C 332.928 156.630,333.001 157.215,333.089 156.500 C 333.178 155.785,333.178 154.615,333.089 153.900 C 333.001 153.185,332.928 153.770,332.928 155.200 M68.283 159.200 C 68.404 161.070,68.570 162.675,68.651 162.767 C 68.922 163.070,68.747 159.432,68.402 157.600 C 68.157 156.292,68.124 156.730,68.283 159.200 M292.047 158.033 C 292.073 159.225,292.238 160.740,292.413 161.400 C 292.601 162.110,292.641 161.294,292.512 159.400 C 292.257 155.692,291.978 154.870,292.047 158.033 M221.773 166.200 C 221.773 171.700,221.830 174.005,221.899 171.323 C 221.968 168.641,221.968 164.141,221.899 161.323 C 221.830 158.505,221.774 160.700,221.773 166.200 M190.100 159.600 C 190.097 160.590,190.225 162.570,190.386 164.000 L 190.678 166.600 190.704 164.200 C 190.718 162.880,190.590 160.900,190.418 159.800 L 190.107 157.800 190.100 159.600 M333.331 161.400 C 333.333 162.940,333.405 163.521,333.492 162.691 C 333.579 161.861,333.577 160.601,333.489 159.891 C 333.400 159.181,333.329 159.860,333.331 161.400 M68.893 165.600 C 68.893 166.370,68.975 166.685,69.076 166.300 C 69.176 165.915,69.176 165.285,69.076 164.900 C 68.975 164.515,68.893 164.830,68.893 165.600 M292.823 167.633 C 292.836 168.825,293.002 170.520,293.192 171.400 C 293.432 172.514,293.470 171.906,293.315 169.400 C 293.066 165.347,292.788 164.350,292.823 167.633 M69.320 169.200 C 69.320 170.410,69.395 170.905,69.487 170.300 C 69.578 169.695,69.578 168.705,69.487 168.100 C 69.395 167.495,69.320 167.990,69.320 169.200 M333.781 182.600 C 333.780 190.520,333.834 193.817,333.899 189.926 C 333.965 186.035,333.965 179.555,333.900 175.526 C 333.834 171.497,333.781 174.680,333.781 182.600 M143.628 170.033 C 143.644 170.785,143.820 171.760,144.020 172.200 C 144.265 172.739,144.305 172.346,144.141 171.000 C 143.851 168.619,143.589 168.124,143.628 170.033 M191.068 173.000 C 191.195 174.540,191.366 175.875,191.449 175.967 C 191.747 176.296,191.513 172.179,191.179 171.200 C 190.963 170.569,190.922 171.232,191.068 173.000 M269.712 176.200 C 269.704 177.740,269.826 180.890,269.982 183.200 L 270.266 187.400 270.291 184.000 C 270.304 182.130,270.183 178.980,270.021 177.000 C 269.728 173.415,269.727 173.412,269.712 176.200 M70.120 176.800 C 70.120 178.010,70.195 178.505,70.287 177.900 C 70.378 177.295,70.378 176.305,70.287 175.700 C 70.195 175.095,70.120 175.590,70.120 176.800 M144.428 176.433 C 144.444 177.185,144.620 178.160,144.820 178.600 C 145.065 179.139,145.105 178.746,144.941 177.400 C 144.651 175.019,144.389 174.524,144.428 176.433 M222.166 184.400 C 222.166 188.470,222.225 190.135,222.298 188.100 C 222.371 186.065,222.371 182.735,222.298 180.700 C 222.225 178.665,222.166 180.330,222.166 184.400 M293.776 187.348 C 293.789 192.160,293.914 195.580,294.053 194.948 C 294.392 193.408,294.381 186.643,294.033 182.200 C 293.828 179.581,293.758 180.984,293.776 187.348 M70.493 180.400 C 70.493 181.170,70.575 181.485,70.676 181.100 C 70.776 180.715,70.776 180.085,70.676 179.700 C 70.575 179.315,70.493 179.630,70.493 180.400 M132.046 179.400 C 132.053 179.620,132.406 180.520,132.829 181.400 C 133.252 182.280,133.486 182.550,133.349 182.000 C 133.067 180.867,132.025 178.788,132.046 179.400 M191.875 182.600 C 191.998 184.140,192.166 185.475,192.249 185.567 C 192.526 185.873,192.310 182.216,191.979 181.000 C 191.773 180.243,191.735 180.834,191.875 182.600 M145.228 182.833 C 145.244 183.585,145.420 184.560,145.620 185.000 C 145.865 185.539,145.905 185.146,145.741 183.800 C 145.451 181.419,145.189 180.924,145.228 182.833 M70.920 184.800 C 70.920 186.010,70.995 186.505,71.087 185.900 C 71.178 185.295,71.178 184.305,71.087 183.700 C 70.995 183.095,70.920 183.590,70.920 184.800 M146.028 189.633 C 146.044 190.385,146.220 191.360,146.420 191.800 C 146.665 192.339,146.705 191.946,146.541 190.600 C 146.251 188.219,145.989 187.724,146.028 189.633 M192.676 190.600 C 192.805 191.920,192.976 193.075,193.056 193.167 C 193.363 193.521,193.125 189.757,192.792 189.000 C 192.569 188.492,192.526 189.076,192.676 190.600 M71.647 192.033 C 71.673 193.225,71.833 194.740,72.002 195.400 C 72.176 196.081,72.218 195.215,72.098 193.400 C 71.855 189.699,71.578 188.858,71.647 192.033 M146.875 196.200 C 146.865 196.860,147.011 197.760,147.200 198.200 L 147.544 199.000 147.525 198.200 C 147.514 197.760,147.368 196.860,147.200 196.200 L 146.895 195.000 146.875 196.200 M270.540 198.400 C 270.540 200.270,270.609 201.035,270.693 200.100 C 270.777 199.165,270.777 197.635,270.693 196.700 C 270.609 195.765,270.540 196.530,270.540 198.400 M193.499 198.600 C 193.616 200.140,193.777 201.475,193.856 201.567 C 194.134 201.888,193.917 197.789,193.603 196.800 C 193.419 196.219,193.375 196.973,193.499 198.600 M72.524 199.800 C 72.526 201.120,72.601 201.612,72.690 200.893 C 72.779 200.174,72.777 199.094,72.686 198.493 C 72.595 197.892,72.522 198.480,72.524 199.800 M293.067 197.867 C 292.920 198.013,292.811 198.508,292.825 198.967 C 292.849 199.733,292.882 199.723,293.234 198.842 C 293.626 197.863,293.544 197.389,293.067 197.867 M222.578 212.600 C 222.579 219.640,222.633 222.464,222.699 218.875 C 222.766 215.286,222.766 209.526,222.699 206.075 C 222.633 202.624,222.578 205.560,222.578 212.600 M333.293 201.200 C 333.293 201.970,333.375 202.285,333.476 201.900 C 333.576 201.515,333.576 200.885,333.476 200.500 C 333.375 200.115,333.293 200.430,333.293 201.200 M116.440 201.700 C 116.529 203.713,117.094 204.644,117.046 202.700 C 117.021 201.655,116.865 200.800,116.700 200.800 C 116.535 200.800,116.418 201.205,116.440 201.700 M147.693 202.600 C 147.694 203.260,147.832 204.340,148.000 205.000 C 148.423 206.663,148.442 205.026,148.023 203.000 C 147.745 201.655,147.692 201.591,147.693 202.600 M117.560 202.600 C 118.234 203.905,118.788 204.628,118.785 204.200 C 118.783 203.980,118.414 203.350,117.964 202.800 C 117.421 202.136,117.285 202.069,117.560 202.600 M270.948 206.000 C 270.948 208.310,271.014 209.255,271.095 208.100 C 271.176 206.945,271.176 205.055,271.095 203.900 C 271.014 202.745,270.948 203.690,270.948 206.000 M332.901 204.200 C 332.905 205.080,332.987 205.393,333.083 204.895 C 333.179 204.398,333.175 203.678,333.075 203.295 C 332.975 202.913,332.896 203.320,332.901 204.200 M194.282 205.600 C 194.408 207.030,194.577 208.275,194.656 208.367 C 194.961 208.720,194.726 204.558,194.398 203.800 C 194.184 203.305,194.140 203.990,194.282 205.600 M288.629 205.962 L 287.458 207.400 288.809 206.113 C 289.551 205.405,290.078 204.758,289.979 204.675 C 289.881 204.592,289.273 205.171,288.629 205.962 M73.247 207.833 C 73.273 208.915,73.435 210.340,73.606 211.000 C 73.788 211.703,73.828 210.958,73.703 209.200 C 73.457 205.759,73.177 204.918,73.247 207.833 M120.045 207.004 C 120.441 208.038,122.546 211.587,122.683 211.450 C 122.767 211.366,122.269 210.330,121.576 209.148 C 120.342 207.046,119.736 206.197,120.045 207.004 M148.495 209.200 C 148.495 209.750,148.632 210.740,148.800 211.400 C 149.072 212.470,149.105 212.492,149.105 211.600 C 149.105 211.050,148.968 210.060,148.800 209.400 C 148.528 208.330,148.495 208.308,148.495 209.200 M118.028 210.033 C 118.044 210.565,118.219 211.360,118.419 211.800 C 118.671 212.358,118.707 212.115,118.538 211.000 C 118.255 209.143,117.987 208.636,118.028 210.033 M195.094 212.000 C 195.214 213.430,195.377 214.675,195.456 214.767 C 195.735 215.089,195.516 211.388,195.198 210.400 C 195.005 209.800,194.963 210.440,195.094 212.000 M147.200 212.000 C 147.649 212.880,148.106 213.600,148.216 213.600 C 148.326 213.600,148.049 212.880,147.600 212.000 C 147.151 211.120,146.694 210.400,146.584 210.400 C 146.474 210.400,146.751 211.120,147.200 212.000 M330.467 212.780 C 330.233 213.451,330.127 214.000,330.231 214.000 C 330.501 214.000,331.256 211.922,331.057 211.724 C 330.967 211.633,330.701 212.108,330.467 212.780 M276.200 212.800 C 275.696 213.017,275.622 213.144,276.000 213.144 C 276.330 213.144,276.960 212.989,277.400 212.800 C 277.904 212.583,277.978 212.456,277.600 212.456 C 277.270 212.456,276.640 212.611,276.200 212.800 M271.700 213.476 C 272.085 213.576,272.715 213.576,273.100 213.476 C 273.485 213.375,273.170 213.293,272.400 213.293 C 271.630 213.293,271.315 213.375,271.700 213.476 M74.047 215.433 C 74.073 216.515,74.235 217.940,74.406 218.600 C 74.588 219.303,74.628 218.558,74.503 216.800 C 74.257 213.359,73.977 212.518,74.047 215.433 M118.868 214.800 C 118.888 215.839,119.518 217.546,119.532 216.600 C 119.538 216.160,119.389 215.440,119.200 215.000 C 118.989 214.510,118.861 214.432,118.868 214.800 M327.117 218.664 C 326.082 220.059,325.362 221.195,325.517 221.188 C 325.859 221.174,329.358 216.411,329.148 216.245 C 329.066 216.181,328.153 217.270,327.117 218.664 M196.114 219.800 C 196.117 220.900,196.195 221.303,196.287 220.695 C 196.379 220.086,196.377 219.186,196.282 218.695 C 196.187 218.203,196.111 218.700,196.114 219.800 M119.656 219.400 C 119.656 219.840,119.811 220.560,120.000 221.000 L 120.344 221.800 120.344 221.000 C 120.344 220.560,120.189 219.840,120.000 219.400 L 119.656 218.600 119.656 219.400 M323.200 223.400 C 322.228 224.390,321.523 225.200,321.633 225.200 C 321.743 225.200,322.628 224.390,323.600 223.400 C 324.572 222.410,325.277 221.600,325.167 221.600 C 325.057 221.600,324.172 222.410,323.200 223.400 M74.840 223.633 C 74.862 224.605,75.031 225.850,75.216 226.400 C 75.426 227.027,75.466 226.430,75.323 224.800 C 75.055 221.756,74.783 221.098,74.840 223.633 M120.487 223.800 C 120.491 224.240,120.632 225.140,120.800 225.800 C 121.074 226.878,121.106 226.898,121.113 226.000 C 121.117 225.450,120.976 224.550,120.800 224.000 C 120.549 223.216,120.481 223.173,120.487 223.800 M196.909 226.000 C 196.909 226.990,196.987 227.395,197.082 226.900 C 197.178 226.405,197.178 225.595,197.082 225.100 C 196.987 224.605,196.909 225.010,196.909 226.000 M222.962 233.800 C 222.962 237.320,223.024 238.706,223.098 236.881 C 223.172 235.056,223.172 232.176,223.097 230.481 C 223.022 228.786,222.961 230.280,222.962 233.800 M133.040 230.402 C 133.639 231.503,134.193 232.340,134.271 232.263 C 134.443 232.090,132.408 228.400,132.141 228.400 C 132.036 228.400,132.440 229.301,133.040 230.402 M121.268 229.200 C 121.288 230.239,121.918 231.946,121.932 231.000 C 121.938 230.560,121.789 229.840,121.600 229.400 C 121.389 228.910,121.261 228.832,121.268 229.200 M314.600 230.000 C 313.940 230.437,313.580 230.792,313.800 230.788 C 314.201 230.782,316.376 229.223,316.000 229.212 C 315.890 229.208,315.260 229.563,314.600 230.000 M75.640 231.233 C 75.662 232.205,75.831 233.450,76.016 234.000 C 76.226 234.627,76.266 234.030,76.123 232.400 C 75.855 229.356,75.583 228.698,75.640 231.233 M197.709 232.000 C 197.709 232.990,197.787 233.395,197.882 232.900 C 197.978 232.405,197.978 231.595,197.882 231.100 C 197.787 230.605,197.709 231.010,197.709 232.000 M308.600 232.829 C 307.720 233.252,307.450 233.486,308.000 233.349 C 309.133 233.067,311.212 232.025,310.600 232.046 C 310.380 232.053,309.480 232.406,308.600 232.829 M122.068 234.200 C 122.074 234.640,122.224 235.450,122.400 236.000 L 122.720 237.000 122.732 236.000 C 122.738 235.450,122.589 234.640,122.400 234.200 L 122.056 233.400 122.068 234.200 M135.606 234.850 C 135.597 235.205,137.633 238.800,137.842 238.800 C 137.938 238.800,137.660 238.125,137.224 237.300 C 136.278 235.511,135.615 234.506,135.606 234.850 M300.200 235.600 C 299.696 235.817,299.622 235.944,300.000 235.944 C 300.330 235.944,300.960 235.789,301.400 235.600 C 301.904 235.383,301.978 235.256,301.600 235.256 C 301.270 235.256,300.640 235.411,300.200 235.600 M296.800 236.400 C 295.976 236.664,295.941 236.726,296.600 236.754 C 297.040 236.773,297.670 236.613,298.000 236.400 C 298.701 235.947,298.214 235.947,296.800 236.400 M198.501 238.200 C 198.505 239.080,198.587 239.393,198.683 238.895 C 198.779 238.398,198.775 237.678,198.675 237.295 C 198.575 236.913,198.496 237.320,198.501 238.200 M292.200 237.200 C 291.122 237.474,291.102 237.506,292.000 237.513 C 292.550 237.517,293.450 237.376,294.000 237.200 C 295.344 236.769,293.892 236.769,292.200 237.200 M76.428 238.833 C 76.444 239.805,76.614 240.960,76.808 241.400 C 77.031 241.908,77.074 241.324,76.924 239.800 C 76.640 236.899,76.390 236.412,76.428 238.833 M284.600 238.000 L 282.600 238.274 284.400 238.290 C 285.390 238.298,286.740 238.168,287.400 238.000 C 288.977 237.599,287.525 237.599,284.600 238.000 M271.398 252.300 C 271.396 260.355,271.513 264.854,271.675 263.000 C 272.005 259.229,271.968 238.400,271.631 238.400 C 271.504 238.401,271.399 244.656,271.398 252.300 M122.875 239.800 C 122.886 240.240,123.032 241.140,123.200 241.800 L 123.505 243.000 123.525 241.800 C 123.535 241.140,123.389 240.240,123.200 239.800 L 122.856 239.000 122.875 239.800 M139.615 242.200 C 139.617 242.420,139.986 243.050,140.436 243.600 C 140.979 244.264,141.115 244.331,140.840 243.800 C 140.166 242.495,139.612 241.772,139.615 242.200 M199.309 243.600 C 199.309 244.590,199.387 244.995,199.482 244.500 C 199.578 244.005,199.578 243.195,199.482 242.700 C 199.387 242.205,199.309 242.610,199.309 243.600 M123.873 246.800 C 124.004 247.790,124.176 248.675,124.256 248.767 C 124.557 249.114,124.328 246.564,123.990 245.800 C 123.753 245.266,123.714 245.598,123.873 246.800 M77.286 246.800 C 77.283 247.570,77.424 248.650,77.600 249.200 C 78.050 250.604,78.065 249.137,77.623 247.000 L 77.292 245.400 77.286 246.800 M200.040 249.033 C 200.062 249.675,200.233 250.650,200.420 251.200 C 200.649 251.874,200.684 251.549,200.528 250.200 C 200.269 247.950,199.979 247.259,200.040 249.033 M124.685 254.000 C 124.807 255.430,124.972 256.675,125.053 256.767 C 125.320 257.070,125.111 253.822,124.785 252.600 C 124.582 251.844,124.546 252.362,124.685 254.000 M78.040 254.433 C 78.062 255.405,78.231 256.650,78.416 257.200 C 78.626 257.827,78.666 257.230,78.523 255.600 C 78.255 252.556,77.983 251.898,78.040 254.433 M223.280 260.200 C 223.243 264.380,223.344 268.009,223.506 268.264 C 223.668 268.519,223.752 265.999,223.694 262.664 C 223.524 252.997,223.354 251.982,223.280 260.200 M200.887 254.000 C 200.883 254.550,201.024 255.450,201.200 256.000 C 201.631 257.344,201.631 255.892,201.200 254.200 C 200.926 253.122,200.894 253.102,200.887 254.000 M125.314 262.200 C 125.317 263.300,125.395 263.703,125.487 263.095 C 125.579 262.486,125.577 261.586,125.482 261.095 C 125.387 260.603,125.311 261.100,125.314 262.200 M78.883 262.000 C 78.870 262.770,79.003 264.210,79.180 265.200 C 79.612 267.631,79.646 265.347,79.218 262.600 C 78.964 260.965,78.903 260.855,78.883 262.000 M152.640 265.602 C 153.239 266.703,153.793 267.540,153.871 267.463 C 154.043 267.290,152.008 263.600,151.741 263.600 C 151.636 263.600,152.040 264.501,152.640 265.602 M202.600 269.196 C 202.600 272.080,202.717 274.027,202.860 273.520 C 203.003 273.014,203.120 271.070,203.120 269.200 C 203.120 267.330,203.003 265.384,202.860 264.875 C 202.717 264.367,202.600 266.311,202.600 269.196 M124.846 267.267 C 124.821 267.634,124.696 268.264,124.570 268.667 C 124.352 269.362,124.363 269.363,124.797 268.687 C 125.048 268.296,125.173 267.666,125.073 267.287 C 124.911 266.668,124.888 266.666,124.846 267.267 M155.215 270.200 C 155.217 270.420,155.586 271.050,156.036 271.600 C 156.579 272.264,156.715 272.331,156.440 271.800 C 155.766 270.495,155.212 269.772,155.215 270.200 M267.826 274.313 C 266.415 276.003,266.388 276.075,267.560 275.000 C 268.671 273.982,269.888 272.370,269.514 272.413 C 269.451 272.420,268.692 273.275,267.826 274.313 M156.815 273.000 C 156.817 273.220,157.186 273.850,157.636 274.400 C 158.179 275.064,158.315 275.131,158.040 274.600 C 157.366 273.295,156.812 272.572,156.815 273.000 M120.426 275.722 L 119.451 277.000 120.726 275.825 C 122.051 274.603,122.203 274.385,121.700 274.422 C 121.535 274.434,120.962 275.019,120.426 275.722 M227.673 275.300 C 229.015 276.565,229.781 276.955,228.830 275.888 C 228.297 275.290,227.699 274.800,227.502 274.800 C 227.304 274.800,227.381 275.025,227.673 275.300 M85.686 276.600 C 86.495 277.150,87.299 277.600,87.472 277.600 C 87.644 277.600,87.123 277.150,86.314 276.600 C 85.505 276.050,84.701 275.600,84.528 275.600 C 84.356 275.600,84.877 276.050,85.686 276.600 M160.493 278.225 C 161.314 279.102,162.574 280.138,163.293 280.527 C 164.556 281.211,164.566 281.210,163.600 280.517 C 163.050 280.123,161.790 279.087,160.800 278.216 L 159.000 276.631 160.493 278.225 M92.352 279.712 C 92.545 279.905,93.219 279.998,93.851 279.919 C 94.909 279.787,94.881 279.759,93.500 279.568 C 92.640 279.449,92.150 279.510,92.352 279.712 M235.200 279.594 C 235.530 279.811,236.235 279.991,236.767 279.994 C 238.051 280.002,237.725 279.775,236.000 279.458 C 235.015 279.277,234.778 279.318,235.200 279.594 M257.600 279.600 C 256.216 279.891,256.214 279.895,257.400 279.941 C 258.060 279.967,258.870 279.813,259.200 279.600 C 259.866 279.170,259.645 279.170,257.600 279.600 M96.475 280.460 C 96.984 280.603,100.550 280.709,104.400 280.696 C 112.748 280.667,111.654 280.470,102.275 280.313 C 98.576 280.251,95.966 280.317,96.475 280.460 M247.400 280.400 L 239.800 280.627 247.200 280.685 C 251.270 280.717,254.960 280.589,255.400 280.400 C 255.840 280.211,255.930 280.083,255.600 280.115 C 255.270 280.147,251.580 280.275,247.400 280.400 M165.411 281.734 C 166.296 282.332,167.600 282.858,167.600 282.617 C 167.600 282.437,165.198 281.200,164.850 281.200 C 164.724 281.200,164.977 281.440,165.411 281.734 M195.600 282.477 C 194.390 283.114,193.850 283.514,194.400 283.367 C 195.743 283.007,197.492 282.099,197.798 281.603 C 197.935 281.381,197.992 281.227,197.924 281.260 C 197.856 281.292,196.810 281.840,195.600 282.477 M168.600 283.200 C 169.040 283.389,169.670 283.544,170.000 283.544 C 170.378 283.544,170.304 283.417,169.800 283.200 C 169.360 283.011,168.730 282.856,168.400 282.856 C 168.022 282.856,168.096 282.983,168.600 283.200 M171.600 284.000 C 172.150 284.176,172.960 284.320,173.400 284.320 C 174.033 284.320,173.992 284.254,173.200 284.000 C 172.650 283.824,171.840 283.680,171.400 283.680 C 170.767 283.680,170.808 283.746,171.600 284.000 M191.000 284.000 C 189.981 284.438,191.032 284.438,192.400 284.000 C 193.204 283.743,193.243 283.677,192.600 283.668 C 192.160 283.662,191.440 283.811,191.000 284.000 M176.100 284.687 C 176.705 284.778,177.695 284.778,178.300 284.687 C 178.905 284.595,178.410 284.520,177.200 284.520 C 175.990 284.520,175.495 284.595,176.100 284.687 M186.700 284.682 C 187.195 284.778,188.005 284.778,188.500 284.682 C 188.995 284.587,188.590 284.509,187.600 284.509 C 186.610 284.509,186.205 284.587,186.700 284.682 M181.111 285.093 C 182.051 285.178,183.491 285.177,184.311 285.091 C 185.130 285.005,184.360 284.936,182.600 284.937 C 180.840 284.939,180.170 285.009,181.111 285.093 " stroke="none" fill="#5c5c5c" fill-rule="evenodd"></path><path id="path3" d="M166.500 115.891 C 167.325 115.978,168.675 115.978,169.500 115.891 C 170.325 115.805,169.650 115.734,168.000 115.734 C 166.350 115.734,165.675 115.805,166.500 115.891 M159.000 116.819 C 158.442 117.071,158.685 117.107,159.800 116.938 C 160.680 116.804,161.475 116.628,161.567 116.547 C 161.910 116.244,159.768 116.471,159.000 116.819 M247.800 117.622 C 246.789 117.816,247.378 117.851,249.400 117.716 C 251.160 117.599,252.675 117.435,252.767 117.351 C 253.044 117.100,249.511 117.292,247.800 117.622 M261.633 117.346 C 261.725 117.427,264.140 117.586,267.000 117.700 C 270.324 117.832,271.334 117.795,269.800 117.597 C 267.302 117.274,261.343 117.091,261.633 117.346 M241.600 118.400 C 240.808 118.654,240.767 118.720,241.400 118.720 C 241.840 118.720,242.650 118.576,243.200 118.400 C 243.992 118.146,244.033 118.080,243.400 118.080 C 242.960 118.080,242.150 118.224,241.600 118.400 M276.800 118.420 C 279.214 118.850,281.106 118.813,279.000 118.377 C 278.120 118.195,276.860 118.058,276.200 118.073 C 275.300 118.093,275.450 118.180,276.800 118.420 M152.000 119.640 C 150.343 120.630,147.318 123.467,146.709 124.600 C 146.472 125.040,147.119 124.470,148.145 123.334 C 149.172 122.198,150.819 120.796,151.806 120.218 C 152.793 119.639,153.600 119.084,153.600 118.983 C 153.600 118.702,153.501 118.743,152.000 119.640 M283.600 119.200 C 284.150 119.376,285.050 119.520,285.600 119.520 L 286.600 119.520 285.600 119.200 C 285.050 119.024,284.150 118.880,283.600 118.880 L 282.600 118.880 283.600 119.200 M288.600 120.000 C 289.040 120.189,289.760 120.344,290.200 120.344 L 291.000 120.344 290.200 120.000 C 289.760 119.811,289.040 119.656,288.600 119.656 L 287.800 119.656 288.600 120.000 M81.400 120.800 C 80.330 121.072,80.308 121.105,81.200 121.105 C 81.750 121.105,82.740 120.968,83.400 120.800 C 84.470 120.528,84.492 120.495,83.600 120.495 C 83.050 120.495,82.060 120.632,81.400 120.800 M94.800 120.800 C 95.350 120.976,96.160 121.120,96.600 121.120 C 97.233 121.120,97.192 121.054,96.400 120.800 C 95.850 120.624,95.040 120.480,94.600 120.480 C 93.967 120.480,94.008 120.546,94.800 120.800 M293.000 120.800 C 293.440 120.989,294.070 121.144,294.400 121.144 C 294.778 121.144,294.704 121.017,294.200 120.800 C 293.760 120.611,293.130 120.456,292.800 120.456 C 292.422 120.456,292.496 120.583,293.000 120.800 M183.200 121.458 C 183.200 121.674,183.785 122.379,184.500 123.025 L 185.800 124.200 184.600 122.802 C 183.940 122.033,183.355 121.328,183.300 121.235 C 183.245 121.143,183.200 121.243,183.200 121.458 M186.525 125.968 C 187.000 126.835,187.450 127.484,187.524 127.409 C 187.718 127.216,186.477 124.895,186.034 124.621 C 185.829 124.494,186.050 125.100,186.525 125.968 M219.290 127.454 C 218.130 128.463,217.000 129.674,216.779 130.144 C 216.431 130.886,216.468 130.875,217.063 130.061 C 217.440 129.545,218.722 128.330,219.911 127.361 C 221.100 126.393,221.922 125.604,221.737 125.610 C 221.552 125.615,220.451 126.445,219.290 127.454 M145.029 128.629 C 144.881 129.215,144.838 129.772,144.932 129.866 C 145.027 129.960,145.224 129.558,145.371 128.971 C 145.519 128.385,145.562 127.828,145.468 127.734 C 145.373 127.640,145.176 128.042,145.029 128.629 M187.995 129.181 C 188.204 129.911,188.486 130.619,188.620 130.754 C 188.996 131.129,188.344 128.652,187.955 128.227 C 187.768 128.022,187.785 128.451,187.995 129.181 M316.200 129.807 C 316.640 130.166,317.360 130.635,317.800 130.851 L 318.600 131.244 317.800 130.593 C 317.360 130.234,316.640 129.765,316.200 129.549 L 315.400 129.156 316.200 129.807 M144.528 133.200 C 144.528 134.630,144.601 135.215,144.689 134.500 C 144.778 133.785,144.778 132.615,144.689 131.900 C 144.601 131.185,144.528 131.770,144.528 133.200 M215.754 131.777 C 215.632 132.094,215.603 132.679,215.689 133.077 C 215.787 133.528,215.924 133.312,216.054 132.500 C 216.271 131.138,216.130 130.796,215.754 131.777 M322.200 134.602 C 324.180 136.581,325.880 138.150,325.978 138.089 C 326.229 137.932,321.245 132.917,319.800 131.872 C 319.140 131.395,320.220 132.623,322.200 134.602 M67.400 132.800 C 67.248 133.491,67.207 134.141,67.309 134.242 C 67.411 134.344,67.609 133.853,67.750 133.150 C 68.083 131.483,67.760 131.160,67.400 132.800 M189.293 135.200 C 189.293 135.970,189.375 136.285,189.476 135.900 C 189.576 135.515,189.576 134.885,189.476 134.500 C 189.375 134.115,189.293 134.430,189.293 135.200 M66.924 138.200 C 66.926 139.520,67.001 140.012,67.090 139.293 C 67.179 138.574,67.177 137.494,67.086 136.893 C 66.995 136.292,66.922 136.880,66.924 138.200 M217.164 136.733 C 217.380 137.136,217.871 137.721,218.255 138.033 C 218.687 138.384,218.590 138.104,218.001 137.300 C 216.951 135.865,216.557 135.598,217.164 136.733 M144.114 138.200 C 144.117 139.300,144.195 139.703,144.287 139.095 C 144.379 138.486,144.377 137.586,144.282 137.095 C 144.187 136.603,144.111 137.100,144.114 138.200 M327.385 140.300 C 328.002 141.235,328.583 142.000,328.676 142.000 C 328.964 142.000,327.433 139.566,326.832 139.069 C 326.520 138.811,326.768 139.365,327.385 140.300 M221.598 146.919 L 221.797 152.600 221.911 147.232 C 221.973 144.280,221.884 141.723,221.712 141.551 C 221.540 141.378,221.489 143.794,221.598 146.919 M143.765 149.200 C 143.765 153.050,143.825 154.625,143.898 152.700 C 143.971 150.775,143.971 147.625,143.898 145.700 C 143.825 143.775,143.765 145.350,143.765 149.200 M67.285 144.200 C 67.277 144.860,67.410 146.300,67.582 147.400 C 67.836 149.035,67.897 149.145,67.917 148.000 C 67.930 147.230,67.797 145.790,67.620 144.800 C 67.388 143.491,67.296 143.328,67.285 144.200 M274.512 143.495 C 275.564 143.577,277.184 143.576,278.112 143.492 C 279.040 143.408,278.180 143.341,276.200 143.342 C 274.220 143.343,273.460 143.412,274.512 143.495 M268.667 143.867 C 268.520 144.013,268.403 144.328,268.406 144.567 C 268.410 144.860,268.507 144.853,268.706 144.546 C 268.868 144.297,269.360 144.003,269.800 143.893 C 270.574 143.699,270.573 143.691,269.767 143.646 C 269.308 143.621,268.813 143.720,268.667 143.867 M268.544 148.800 C 268.544 150.890,268.612 151.745,268.694 150.700 C 268.776 149.655,268.776 147.945,268.694 146.900 C 268.612 145.855,268.544 146.710,268.544 148.800 M288.400 147.400 C 289.146 148.170,289.847 148.800,289.957 148.800 C 290.067 148.800,289.546 148.170,288.800 147.400 C 288.054 146.630,287.353 146.000,287.243 146.000 C 287.133 146.000,287.654 146.630,288.400 147.400 M119.407 149.879 C 120.007 151.314,120.400 151.962,120.400 151.516 C 120.400 151.084,119.185 148.400,118.989 148.400 C 118.879 148.400,119.067 149.066,119.407 149.879 M332.095 151.600 C 332.095 152.150,332.232 153.140,332.400 153.800 C 332.672 154.870,332.705 154.892,332.705 154.000 C 332.705 153.450,332.568 152.460,332.400 151.800 C 332.128 150.730,332.095 150.708,332.095 151.600 M68.083 153.200 C 68.070 153.970,68.203 155.410,68.380 156.400 C 68.812 158.831,68.846 156.547,68.418 153.800 C 68.164 152.165,68.103 152.055,68.083 153.200 M120.618 152.900 C 120.768 153.395,121.055 153.976,121.256 154.191 C 121.457 154.406,121.419 154.001,121.172 153.291 C 120.665 151.838,120.197 151.508,120.618 152.900 M291.858 153.600 C 292.175 155.325,292.402 155.651,292.394 154.367 C 292.391 153.835,292.211 153.130,291.994 152.800 C 291.718 152.378,291.677 152.615,291.858 153.600 M189.754 157.600 C 189.754 160.350,189.818 161.475,189.896 160.100 C 189.974 158.725,189.974 156.475,189.896 155.100 C 189.818 153.725,189.754 154.850,189.754 157.600 M292.698 160.200 C 292.815 162.400,292.975 164.275,293.055 164.367 C 293.327 164.679,293.142 159.805,292.813 158.000 C 292.594 156.797,292.556 157.526,292.698 160.200 M123.246 159.000 C 123.253 159.220,123.606 160.120,124.029 161.000 C 124.452 161.880,124.686 162.150,124.549 161.600 C 124.267 160.467,123.225 158.388,123.246 159.000 M332.940 162.000 C 332.940 163.870,333.009 164.635,333.093 163.700 C 333.177 162.765,333.177 161.235,333.093 160.300 C 333.009 159.365,332.940 160.130,332.940 162.000 M143.324 161.800 C 143.326 163.120,143.401 163.612,143.490 162.893 C 143.579 162.174,143.577 161.094,143.486 160.493 C 143.395 159.892,143.322 160.480,143.324 161.800 M268.940 163.600 C 268.940 165.470,269.009 166.235,269.093 165.300 C 269.177 164.365,269.177 162.835,269.093 161.900 C 269.009 160.965,268.940 161.730,268.940 163.600 M68.870 162.400 C 68.857 162.950,68.995 164.120,69.177 165.000 L 69.508 166.600 69.507 165.200 C 69.505 163.435,68.909 160.812,68.870 162.400 M190.109 164.400 C 190.109 165.390,190.187 165.795,190.282 165.300 C 190.378 164.805,190.378 163.995,190.282 163.500 C 190.187 163.005,190.109 163.410,190.109 164.400 M222.323 178.000 C 222.426 186.030,222.576 192.675,222.656 192.767 C 222.906 193.056,222.722 174.038,222.422 168.600 C 222.264 165.740,222.220 169.970,222.323 178.000 M143.714 166.200 C 143.717 167.300,143.795 167.703,143.887 167.095 C 143.979 166.486,143.977 165.586,143.882 165.095 C 143.787 164.603,143.711 165.100,143.714 166.200 M293.293 167.600 C 293.293 168.370,293.375 168.685,293.476 168.300 C 293.576 167.915,293.576 167.285,293.476 166.900 C 293.375 166.515,293.293 166.830,293.293 167.600 M333.382 182.400 C 333.382 191.310,333.435 194.955,333.500 190.500 C 333.564 186.045,333.564 178.755,333.500 174.300 C 333.435 169.845,333.382 173.490,333.382 182.400 M190.528 170.400 C 190.528 171.830,190.601 172.415,190.689 171.700 C 190.778 170.985,190.778 169.815,190.689 169.100 C 190.601 168.385,190.528 168.970,190.528 170.400 M269.355 173.000 C 269.356 175.860,269.420 176.978,269.497 175.483 C 269.574 173.989,269.574 171.649,269.496 170.283 C 269.418 168.918,269.355 170.140,269.355 173.000 M144.291 171.400 C 144.411 172.940,144.575 174.275,144.655 174.367 C 144.922 174.673,144.709 171.016,144.389 169.800 C 144.198 169.072,144.159 169.702,144.291 171.400 M69.877 171.400 C 70.000 172.720,70.168 173.875,70.250 173.967 C 70.518 174.264,70.315 171.434,69.980 170.200 C 69.765 169.411,69.730 169.822,69.877 171.400 M293.742 173.400 C 293.741 175.380,293.808 176.240,293.892 175.312 C 293.976 174.384,293.977 172.764,293.895 171.712 C 293.812 170.660,293.743 171.420,293.742 173.400 M190.893 174.400 C 190.893 175.170,190.975 175.485,191.076 175.100 C 191.176 174.715,191.176 174.085,191.076 173.700 C 190.975 173.315,190.893 173.630,190.893 174.400 M145.091 177.800 C 145.211 179.340,145.375 180.675,145.455 180.767 C 145.722 181.073,145.509 177.416,145.189 176.200 C 144.998 175.472,144.959 176.102,145.091 177.800 M70.476 177.200 C 70.467 177.750,70.603 179.010,70.780 180.000 C 71.020 181.350,71.107 181.500,71.127 180.600 C 71.142 179.940,71.005 178.680,70.823 177.800 C 70.616 176.798,70.486 176.574,70.476 177.200 M191.331 179.800 C 191.333 181.340,191.405 181.921,191.492 181.091 C 191.579 180.261,191.577 179.001,191.489 178.291 C 191.400 177.581,191.329 178.260,191.331 179.800 M294.124 181.400 C 294.126 182.720,294.201 183.212,294.290 182.493 C 294.379 181.774,294.377 180.694,294.286 180.093 C 294.195 179.492,294.122 180.080,294.124 181.400 M269.740 185.200 C 269.740 187.070,269.809 187.835,269.893 186.900 C 269.977 185.965,269.977 184.435,269.893 183.500 C 269.809 182.565,269.740 183.330,269.740 185.200 M71.469 186.600 C 71.596 187.920,71.768 189.075,71.850 189.167 C 72.141 189.490,71.916 186.186,71.579 185.200 C 71.358 184.552,71.320 185.045,71.469 186.600 M146.114 186.200 C 146.117 187.300,146.195 187.703,146.287 187.095 C 146.379 186.486,146.377 185.586,146.282 185.095 C 146.187 184.603,146.111 185.100,146.114 186.200 M294.554 189.200 C 294.554 191.950,294.618 193.075,294.696 191.700 C 294.774 190.325,294.774 188.075,294.696 186.700 C 294.618 185.325,294.554 186.450,294.554 189.200 M192.114 188.600 C 192.117 189.700,192.195 190.103,192.287 189.495 C 192.379 188.886,192.377 187.986,192.282 187.495 C 192.187 187.003,192.111 187.500,192.114 188.600 M270.155 194.600 C 270.156 197.460,270.220 198.578,270.297 197.083 C 270.374 195.589,270.374 193.249,270.296 191.883 C 270.218 190.518,270.155 191.740,270.155 194.600 M136.607 191.479 C 137.207 192.914,137.600 193.562,137.600 193.116 C 137.600 192.684,136.385 190.000,136.189 190.000 C 136.079 190.000,136.267 190.666,136.607 191.479 M146.914 192.600 C 146.917 193.700,146.995 194.103,147.087 193.495 C 147.179 192.886,147.177 191.986,147.082 191.495 C 146.987 191.003,146.911 191.500,146.914 192.600 M72.285 194.000 C 72.407 195.430,72.572 196.675,72.653 196.767 C 72.920 197.070,72.711 193.822,72.385 192.600 C 72.182 191.844,72.146 192.362,72.285 194.000 M137.628 193.692 C 137.582 194.165,138.886 197.248,139.058 197.075 C 139.145 196.988,138.866 196.125,138.437 195.158 C 138.008 194.191,137.644 193.531,137.628 193.692 M192.847 196.033 C 192.873 197.005,193.037 198.340,193.211 199.000 C 193.402 199.728,193.441 199.098,193.309 197.400 C 193.061 194.221,192.776 193.376,192.847 196.033 M293.654 197.067 C 293.625 197.544,293.496 198.264,293.370 198.667 C 293.152 199.361,293.164 199.362,293.596 198.688 C 293.847 198.297,293.975 197.577,293.881 197.088 C 293.709 196.201,293.709 196.201,293.654 197.067 M147.714 199.000 C 147.717 200.100,147.795 200.503,147.887 199.895 C 147.979 199.286,147.977 198.386,147.882 197.895 C 147.787 197.403,147.711 197.900,147.714 199.000 M139.615 198.600 C 139.617 198.820,139.986 199.450,140.436 200.000 C 140.979 200.664,141.115 200.731,140.840 200.200 C 140.166 198.895,139.612 198.172,139.615 198.600 M332.909 200.400 C 332.909 201.390,332.987 201.795,333.082 201.300 C 333.178 200.805,333.178 199.995,333.082 199.500 C 332.987 199.005,332.909 199.410,332.909 200.400 M115.838 199.539 C 115.407 200.236,116.138 201.581,116.648 201.030 C 116.979 200.671,116.963 200.365,116.586 199.849 C 116.302 199.460,115.971 199.323,115.838 199.539 M73.085 202.000 C 73.207 203.430,73.372 204.675,73.453 204.767 C 73.720 205.070,73.511 201.822,73.185 200.600 C 72.982 199.844,72.946 200.362,73.085 202.000 M193.647 203.633 C 193.673 204.385,193.841 205.540,194.020 206.200 C 194.235 206.989,194.270 206.578,194.123 205.000 C 193.877 202.355,193.573 201.481,193.647 203.633 M142.015 203.000 C 142.017 203.220,142.386 203.850,142.836 204.400 C 143.379 205.064,143.515 205.131,143.240 204.600 C 142.566 203.295,142.012 202.572,142.015 203.000 M290.175 204.668 C 289.559 205.476,289.259 206.011,289.509 205.856 C 290.021 205.540,291.753 203.200,291.475 203.200 C 291.376 203.200,290.791 203.861,290.175 204.668 M270.540 206.800 C 270.540 208.670,270.609 209.435,270.693 208.500 C 270.777 207.565,270.777 206.035,270.693 205.100 C 270.609 204.165,270.540 204.930,270.540 206.800 M119.400 205.200 C 119.741 205.860,120.111 206.400,120.221 206.400 C 120.331 206.400,120.141 205.860,119.800 205.200 C 119.459 204.540,119.089 204.000,118.979 204.000 C 118.869 204.000,119.059 204.540,119.400 205.200 M332.250 205.250 C 332.109 205.953,332.069 206.602,332.159 206.692 C 332.250 206.783,332.448 206.291,332.600 205.600 C 332.752 204.909,332.793 204.259,332.691 204.158 C 332.589 204.056,332.391 204.547,332.250 205.250 M148.501 206.200 C 148.505 207.080,148.587 207.393,148.683 206.895 C 148.779 206.398,148.775 205.678,148.675 205.295 C 148.575 204.913,148.496 205.320,148.501 206.200 M287.000 208.109 L 285.400 209.713 287.100 208.423 C 288.035 207.713,288.800 206.968,288.800 206.766 C 288.800 206.291,288.858 206.248,287.000 208.109 M73.885 209.600 C 74.007 211.030,74.172 212.275,74.253 212.367 C 74.520 212.670,74.311 209.422,73.985 208.200 C 73.782 207.444,73.746 207.962,73.885 209.600 M117.280 207.800 C 117.280 208.240,117.424 209.050,117.600 209.600 C 117.854 210.392,117.920 210.433,117.920 209.800 C 117.920 209.360,117.776 208.550,117.600 208.000 C 117.346 207.208,117.280 207.167,117.280 207.800 M194.440 210.433 C 194.462 211.185,194.630 212.250,194.813 212.800 C 195.029 213.446,195.066 213.020,194.919 211.600 C 194.659 209.083,194.381 208.407,194.440 210.433 M149.234 213.000 C 149.306 214.376,149.191 214.968,148.865 214.899 C 148.513 214.823,148.519 215.002,148.892 215.599 C 149.771 217.005,150.047 216.468,149.767 213.900 C 149.433 210.840,149.091 210.262,149.234 213.000 M118.068 212.000 C 118.088 213.039,118.718 214.746,118.732 213.800 C 118.738 213.360,118.589 212.640,118.400 212.200 C 118.189 211.710,118.061 211.632,118.068 212.000 M270.926 213.000 C 270.989 213.620,271.320 213.812,272.403 213.852 C 273.755 213.903,273.759 213.899,272.525 213.729 C 271.782 213.626,271.165 213.271,271.048 212.877 C 270.902 212.387,270.868 212.421,270.926 213.000 M274.900 213.476 C 275.285 213.576,275.915 213.576,276.300 213.476 C 276.685 213.375,276.370 213.293,275.600 213.293 C 274.830 213.293,274.515 213.375,274.900 213.476 M223.122 229.000 C 223.226 237.580,223.376 244.675,223.455 244.767 C 223.700 245.049,223.516 225.341,223.216 219.200 C 223.061 216.010,223.018 220.420,223.122 229.000 M125.560 216.200 C 126.234 217.505,126.788 218.228,126.785 217.800 C 126.783 217.580,126.414 216.950,125.964 216.400 C 125.421 215.736,125.285 215.669,125.560 216.200 M195.240 216.833 C 195.262 217.585,195.430 218.650,195.613 219.200 C 195.829 219.846,195.866 219.420,195.719 218.000 C 195.459 215.483,195.181 214.807,195.240 216.833 M118.887 216.600 C 118.891 217.040,119.032 217.940,119.200 218.600 C 119.474 219.678,119.506 219.698,119.513 218.800 C 119.517 218.250,119.376 217.350,119.200 216.800 C 118.949 216.016,118.881 215.973,118.887 216.600 M327.814 217.035 C 327.441 217.604,327.205 218.138,327.289 218.222 C 327.373 218.307,327.758 217.841,328.144 217.188 C 329.006 215.728,328.748 215.609,327.814 217.035 M74.920 219.200 C 74.920 220.410,74.995 220.905,75.087 220.300 C 75.178 219.695,75.178 218.705,75.087 218.100 C 74.995 217.495,74.920 217.990,74.920 219.200 M127.400 219.600 C 127.741 220.260,128.111 220.800,128.221 220.800 C 128.331 220.800,128.141 220.260,127.800 219.600 C 127.459 218.940,127.089 218.400,126.979 218.400 C 126.869 218.400,127.059 218.940,127.400 219.600 M325.634 220.153 L 324.669 221.400 325.813 220.312 C 326.443 219.714,326.877 219.153,326.779 219.065 C 326.680 218.977,326.165 219.467,325.634 220.153 M322.818 223.334 L 321.437 225.000 323.118 223.419 C 324.043 222.549,324.800 221.784,324.800 221.719 C 324.800 221.259,323.994 221.916,322.818 223.334 M196.040 223.433 C 196.062 224.075,196.233 225.050,196.420 225.600 C 196.649 226.274,196.684 225.949,196.528 224.600 C 196.269 222.350,195.979 221.659,196.040 223.433 M75.491 225.400 C 75.611 226.940,75.775 228.275,75.855 228.367 C 76.122 228.673,75.909 225.016,75.589 223.800 C 75.398 223.072,75.359 223.702,75.491 225.400 M120.901 228.600 C 120.905 229.480,120.987 229.793,121.083 229.295 C 121.179 228.798,121.175 228.078,121.075 227.695 C 120.975 227.313,120.896 227.720,120.901 228.600 M132.006 227.650 C 131.997 228.005,134.033 231.600,134.242 231.600 C 134.338 231.600,134.060 230.925,133.624 230.100 C 132.678 228.311,132.015 227.306,132.006 227.650 M196.840 229.433 C 196.862 230.075,197.033 231.050,197.220 231.600 C 197.449 232.274,197.484 231.949,197.328 230.600 C 197.069 228.350,196.779 227.659,196.840 229.433 M76.291 233.000 C 76.411 234.540,76.575 235.875,76.655 235.967 C 76.922 236.273,76.709 232.616,76.389 231.400 C 76.198 230.672,76.159 231.302,76.291 233.000 M135.000 233.200 C 135.341 233.860,135.711 234.400,135.821 234.400 C 135.931 234.400,135.741 233.860,135.400 233.200 C 135.059 232.540,134.689 232.000,134.579 232.000 C 134.469 232.000,134.659 232.540,135.000 233.200 M121.701 233.800 C 121.705 234.680,121.787 234.993,121.883 234.495 C 121.979 233.998,121.975 233.278,121.875 232.895 C 121.775 232.513,121.696 232.920,121.701 233.800 M197.640 235.433 C 197.662 236.075,197.833 237.050,198.020 237.600 C 198.249 238.274,198.284 237.949,198.128 236.600 C 197.869 234.350,197.579 233.659,197.640 235.433 M288.305 237.483 C 288.802 237.579,289.522 237.575,289.905 237.475 C 290.287 237.375,289.880 237.296,289.000 237.301 C 288.120 237.305,287.807 237.387,288.305 237.483 M122.501 239.000 C 122.505 239.880,122.587 240.193,122.683 239.695 C 122.779 239.198,122.775 238.478,122.675 238.095 C 122.575 237.713,122.496 238.120,122.501 239.000 M271.223 238.172 C 270.962 238.487,270.820 239.432,270.907 240.272 L 271.066 241.800 271.133 240.087 C 271.186 238.719,271.381 238.301,272.100 238.012 C 272.709 237.768,272.790 237.643,272.349 237.625 C 271.991 237.611,271.484 237.857,271.223 238.172 M283.100 237.882 C 283.595 237.978,284.405 237.978,284.900 237.882 C 285.395 237.787,284.990 237.709,284.000 237.709 C 283.010 237.709,282.605 237.787,283.100 237.882 M276.291 238.289 C 277.001 238.377,278.261 238.379,279.091 238.292 C 279.921 238.205,279.340 238.133,277.800 238.131 C 276.260 238.129,275.581 238.200,276.291 238.289 M77.320 242.400 C 77.320 243.610,77.395 244.105,77.487 243.500 C 77.578 242.895,77.578 241.905,77.487 241.300 C 77.395 240.695,77.320 241.190,77.320 242.400 M198.468 241.200 C 198.462 241.750,198.611 242.560,198.800 243.000 L 199.144 243.800 199.132 243.000 C 199.126 242.560,198.976 241.750,198.800 241.200 L 198.480 240.200 198.468 241.200 M123.309 245.200 C 123.309 246.190,123.387 246.595,123.482 246.100 C 123.578 245.605,123.578 244.795,123.482 244.300 C 123.387 243.805,123.309 244.210,123.309 245.200 M271.350 249.400 C 271.351 251.820,271.416 252.758,271.496 251.485 C 271.576 250.212,271.575 248.232,271.494 247.085 C 271.414 245.938,271.349 246.980,271.350 249.400 M199.228 246.433 C 199.244 246.965,199.419 247.760,199.619 248.200 C 199.871 248.758,199.907 248.515,199.738 247.400 C 199.455 245.543,199.187 245.036,199.228 246.433 M78.120 250.000 C 78.120 251.210,78.195 251.705,78.287 251.100 C 78.378 250.495,78.378 249.505,78.287 248.900 C 78.195 248.295,78.120 248.790,78.120 250.000 M124.047 251.833 C 124.073 252.915,124.235 254.340,124.406 255.000 C 124.588 255.703,124.628 254.958,124.503 253.200 C 124.257 249.759,123.977 248.918,124.047 251.833 M200.087 251.400 C 200.091 251.840,200.232 252.740,200.400 253.400 C 200.674 254.478,200.706 254.498,200.713 253.600 C 200.717 253.050,200.576 252.150,200.400 251.600 C 200.149 250.816,200.081 250.773,200.087 251.400 M78.920 257.600 C 78.920 258.810,78.995 259.305,79.087 258.700 C 79.178 258.095,79.178 257.105,79.087 256.500 C 78.995 255.895,78.920 256.390,78.920 257.600 M200.887 256.200 C 200.891 256.640,201.032 257.540,201.200 258.200 C 201.474 259.278,201.506 259.298,201.513 258.400 C 201.517 257.850,201.376 256.950,201.200 256.400 C 200.949 255.616,200.881 255.573,200.887 256.200 M124.948 262.000 C 124.948 264.310,125.014 265.255,125.095 264.100 C 125.176 262.945,125.176 261.055,125.095 259.900 C 125.014 258.745,124.948 259.690,124.948 262.000 M270.950 263.800 C 270.951 266.220,271.016 267.158,271.096 265.885 C 271.176 264.612,271.175 262.632,271.094 261.485 C 271.014 260.338,270.949 261.380,270.950 263.800 M150.600 261.200 C 150.941 261.860,151.311 262.400,151.421 262.400 C 151.531 262.400,151.341 261.860,151.000 261.200 C 150.659 260.540,150.289 260.000,150.179 260.000 C 150.069 260.000,150.259 260.540,150.600 261.200 M201.877 262.600 C 202.000 263.920,202.168 265.075,202.250 265.167 C 202.518 265.464,202.315 262.634,201.980 261.400 C 201.765 260.611,201.730 261.022,201.877 262.600 M223.653 264.000 C 223.630 266.090,223.755 268.025,223.929 268.299 C 224.104 268.574,224.181 267.134,224.101 265.099 C 223.899 259.966,223.700 259.479,223.653 264.000 M79.720 266.000 C 79.720 267.210,79.795 267.705,79.887 267.100 C 79.978 266.495,79.978 265.505,79.887 264.900 C 79.795 264.295,79.720 264.790,79.720 266.000 M202.531 269.400 C 202.533 270.940,202.605 271.521,202.692 270.691 C 202.779 269.861,202.777 268.601,202.689 267.891 C 202.600 267.181,202.529 267.860,202.531 269.400 M124.025 268.900 C 123.766 269.835,123.466 270.870,123.359 271.200 C 123.251 271.530,123.420 271.350,123.734 270.800 C 124.329 269.759,125.001 267.200,124.679 267.200 C 124.578 267.200,124.283 267.965,124.025 268.900 M80.218 269.300 C 80.368 269.795,80.655 270.376,80.856 270.591 C 81.057 270.806,81.019 270.401,80.772 269.691 C 80.265 268.238,79.797 267.908,80.218 269.300 M156.760 272.200 C 157.434 273.505,157.988 274.228,157.985 273.800 C 157.983 273.580,157.614 272.950,157.164 272.400 C 156.621 271.736,156.485 271.669,156.760 272.200 M82.575 273.332 C 83.191 274.139,83.776 274.800,83.875 274.800 C 84.153 274.800,82.421 272.460,81.909 272.144 C 81.659 271.989,81.959 272.524,82.575 273.332 M160.124 277.477 C 160.460 278.021,163.600 280.555,163.600 280.282 C 163.600 280.180,162.753 279.403,161.719 278.555 C 160.684 277.707,159.966 277.222,160.124 277.477 M92.200 279.200 C 92.640 279.389,93.270 279.544,93.600 279.544 C 93.978 279.544,93.904 279.417,93.400 279.200 C 92.960 279.011,92.330 278.856,92.000 278.856 C 91.622 278.856,91.696 278.983,92.200 279.200 M198.000 280.474 C 197.010 281.376,196.560 281.924,197.000 281.692 C 197.752 281.294,200.352 278.781,199.975 278.816 C 199.879 278.825,198.990 279.571,198.000 280.474 M95.633 279.749 C 95.725 279.831,96.700 280.001,97.800 280.128 C 99.149 280.284,99.474 280.249,98.800 280.020 C 97.801 279.680,95.318 279.468,95.633 279.749 M110.200 280.000 L 109.400 280.344 110.200 280.344 C 110.640 280.344,111.360 280.189,111.800 280.000 L 112.600 279.656 111.800 279.656 C 111.360 279.656,110.640 279.811,110.200 280.000 M239.400 280.023 C 241.426 280.442,243.063 280.423,241.400 280.000 C 240.740 279.832,239.660 279.694,239.000 279.693 C 237.991 279.692,238.055 279.745,239.400 280.023 M253.000 280.000 L 251.800 280.305 253.000 280.313 C 253.660 280.317,254.650 280.176,255.200 280.000 L 256.200 279.680 255.200 279.687 C 254.650 279.691,253.660 279.832,253.000 280.000 M173.800 284.000 C 174.460 284.168,175.540 284.306,176.200 284.307 C 177.209 284.308,177.145 284.255,175.800 283.977 C 173.774 283.558,172.137 283.577,173.800 284.000 M188.800 284.000 C 188.008 284.254,187.967 284.320,188.600 284.320 C 189.040 284.320,189.850 284.176,190.400 284.000 C 191.192 283.746,191.233 283.680,190.600 283.680 C 190.160 283.680,189.350 283.824,188.800 284.000 M181.305 284.687 C 181.914 284.779,182.814 284.777,183.305 284.682 C 183.797 284.587,183.300 284.511,182.200 284.514 C 181.100 284.517,180.697 284.595,181.305 284.687 " stroke="none" fill="#848484" fill-rule="evenodd"></path><path id="path4" d="M87.907 120.290 C 88.626 120.379,89.706 120.377,90.307 120.286 C 90.908 120.195,90.320 120.122,89.000 120.124 C 87.680 120.126,87.188 120.201,87.907 120.290 M189.769 144.800 C 189.769 149.310,189.827 151.155,189.898 148.900 C 189.970 146.645,189.970 142.955,189.898 140.700 C 189.827 138.445,189.769 140.290,189.769 144.800 M221.720 154.400 C 221.720 155.610,221.795 156.105,221.887 155.500 C 221.978 154.895,221.978 153.905,221.887 153.300 C 221.795 152.695,221.720 153.190,221.720 154.400 M143.314 157.800 C 143.317 158.900,143.395 159.303,143.487 158.695 C 143.579 158.086,143.577 157.186,143.482 156.695 C 143.387 156.203,143.311 156.700,143.314 157.800 M333.293 165.200 C 333.293 165.970,333.375 166.285,333.476 165.900 C 333.576 165.515,333.576 164.885,333.476 164.500 C 333.375 164.115,333.293 164.430,333.293 165.200 M269.293 166.800 C 269.293 167.570,269.375 167.885,269.476 167.500 C 269.576 167.115,269.576 166.485,269.476 166.100 C 269.375 165.715,269.293 166.030,269.293 166.800 M222.120 175.200 C 222.120 176.410,222.195 176.905,222.287 176.300 C 222.378 175.695,222.378 174.705,222.287 174.100 C 222.195 173.495,222.120 173.990,222.120 175.200 M270.093 188.400 C 270.093 189.170,270.175 189.485,270.276 189.100 C 270.376 188.715,270.376 188.085,270.276 187.700 C 270.175 187.315,270.093 187.630,270.093 188.400 M222.544 196.400 C 222.544 198.490,222.612 199.345,222.694 198.300 C 222.776 197.255,222.776 195.545,222.694 194.500 C 222.612 193.455,222.544 194.310,222.544 196.400 M270.893 211.200 C 270.893 211.970,270.975 212.285,271.076 211.900 C 271.176 211.515,271.176 210.885,271.076 210.500 C 270.975 210.115,270.893 210.430,270.893 211.200 M222.909 226.000 C 222.909 226.990,222.987 227.395,223.082 226.900 C 223.178 226.405,223.178 225.595,223.082 225.100 C 222.987 224.605,222.909 225.010,222.909 226.000 M272.505 238.287 C 273.114 238.379,274.014 238.377,274.505 238.282 C 274.997 238.187,274.500 238.111,273.400 238.114 C 272.300 238.117,271.897 238.195,272.505 238.287 M280.900 238.276 C 281.285 238.376,281.915 238.376,282.300 238.276 C 282.685 238.175,282.370 238.093,281.600 238.093 C 280.830 238.093,280.515 238.175,280.900 238.276 M271.309 243.600 C 271.309 244.590,271.387 244.995,271.482 244.500 C 271.578 244.005,271.578 243.195,271.482 242.700 C 271.387 242.205,271.309 242.610,271.309 243.600 M223.348 248.800 C 223.348 251.110,223.414 252.055,223.495 250.900 C 223.576 249.745,223.576 247.855,223.495 246.700 C 223.414 245.545,223.348 246.490,223.348 248.800 M271.331 256.200 C 271.333 257.740,271.405 258.321,271.492 257.491 C 271.579 256.661,271.577 255.401,271.489 254.691 C 271.400 253.981,271.329 254.660,271.331 256.200 " stroke="none" fill="#7c7c7c" fill-rule="evenodd"></path></g></svg>